<svg xmlns:xlink="http://www.w3.org/1999/xlink" xmlns="http://www.w3.org/2000/svg" width="192" height="90" fill="none"><g clip-path="url(#a)"><path fill="#F8A42A" d="M11.73 42.01 0 35.21v22.03a3.1 3.1 0 0 0 1.55 2.7l18.97 11V57.3a17.62 17.62 0 0 0-8.79-15.29Zm19.87-3.78 11.73-6.8-19-11.01a3.08 3.08 0 0 0-3.1 0l-18.97 11 11.76 6.81a17.51 17.51 0 0 0 17.58 0ZM45.48 57.3v-22l-11.76 6.82a17.72 17.72 0 0 0-8.8 15.29V71l19-11.02a3.12 3.12 0 0 0 1.56-2.7"/><path fill="#363636" d="M174.7 41.75v13.78a.56.56 0 0 0 .17.44.55.55 0 0 0 .43.16h.6a.55.55 0 0 0 .57-.36.55.55 0 0 0 .03-.24V41.75a.55.55 0 0 0-.36-.57.55.55 0 0 0-.24-.03h-.6a.55.55 0 0 0-.56.37.56.56 0 0 0-.03.23Zm-53-.12v14.02a.5.5 0 0 0 .48.48h2.92a.5.5 0 0 0 .48-.48V41.63a.49.49 0 0 0-.48-.48h-2.92a.5.5 0 0 0-.48.48ZM70.5 50.9c-.07.98-.81 1.8-2.24 1.8-1.47 0-2.18-.75-2.27-1.8-.1-1.5-.1-3 0-4.5.09-1.13.8-1.8 2.27-1.8 1.43 0 2.17.82 2.23 1.8.1 1.5.1 3 0 4.5Zm3.87 0c.09-1.5.09-3 0-4.5-.24-3.14-2.54-5.56-5.67-5.56-.61-.02-1.23.1-1.79.36-.44.17-.9.02-.9-.63v-5.1a.6.6 0 0 0-.59-.6h-2.68a.6.6 0 0 0-.6.6v20.06a.6.6 0 0 0 .6.6h1.49a.56.56 0 0 0 .42-.2 1.13 1.13 0 0 1 .74-.48c.87 0 1.1 1.01 3.31 1.01 3.13 0 5.43-2.42 5.67-5.57Zm10.98 0c-.15.98-.8 1.67-2.33 1.67-1.5 0-2.15-.63-2.3-1.68-.18-1.49-.18-3 0-4.49.18-1.14.8-1.68 2.3-1.68 1.52 0 2.18.7 2.33 1.68.18 1.5.18 3 0 4.5Zm3.87 0c.15-1.5.15-3 0-4.5-.38-3.14-2.53-5.57-6.2-5.57-3.64 0-5.79 2.43-6.17 5.57-.15 1.5-.15 3 0 4.5.38 3.14 2.53 5.56 6.2 5.56 3.64 0 5.78-2.42 6.17-5.57Zm11.1 0c-.15.98-.8 1.67-2.33 1.67-1.49 0-2.15-.63-2.3-1.68-.17-1.49-.17-3 0-4.49.18-1.14.81-1.68 2.3-1.68 1.52 0 2.18.7 2.33 1.68.18 1.5.18 3 0 4.5Zm3.87 0c.15-1.5.15-3 0-4.5-.38-3.14-2.53-5.57-6.2-5.57-3.64 0-5.79 2.43-6.17 5.57-.15 1.5-.15 3 0 4.5.38 3.14 2.53 5.56 6.2 5.56 3.64 0 5.79-2.42 6.17-5.57Zm15.12 4.25-4.86-6.56c-.3-.39-.3-.57-.03-.9l4.45-5.54a.6.6 0 0 0-.15-.9.6.6 0 0 0-.33-.09h-2.95a.79.79 0 0 0-.75.4L111.23 46a.16.16 0 0 1-.18.07.16.16 0 0 1-.11-.16V35.47a.6.6 0 0 0-.6-.6h-2.69a.6.6 0 0 0-.6.6v20.05a.6.6 0 0 0 .6.6h2.69a.6.6 0 0 0 .6-.6v-4.94a.16.16 0 0 1 .21-.15l.08.06 3.72 5.19a.87.87 0 0 0 .78.45h3.1a.6.6 0 0 0 .57-.34.58.58 0 0 0-.1-.65h.01Zm6.41-16.56v-3.23a.5.5 0 0 0-.48-.48h-3.22a.5.5 0 0 0-.48.48v3.23a.46.46 0 0 0 .14.34.46.46 0 0 0 .34.14h3.23a.47.47 0 0 0 .47-.48Zm15.8 16.95V46.4a5.42 5.42 0 0 0-5.51-5.56c-1.79 0-2.41 1.04-3.28 1.04-.42 0-.56-.3-.8-.5a.69.69 0 0 0-.54-.22h-1.5a.6.6 0 0 0-.59.6v13.78a.6.6 0 0 0 .6.6h2.68a.6.6 0 0 0 .6-.6v-9.29c0-.9.83-1.64 2.24-1.64 1.43 0 2.24.78 2.24 1.77v9.15a.6.6 0 0 0 .6.6h2.68a.6.6 0 0 0 .6-.6l-.01.01Zm11.38-4.65c-.1 1.05-.81 1.8-2.27 1.8-1.43 0-2.18-.8-2.24-1.8-.1-1.5-.1-3 0-4.49.06-.99.8-1.8 2.24-1.8 1.46 0 2.17.66 2.27 1.8.08 1.5.08 3 0 4.5Zm3.84 6.14V41.75a.6.6 0 0 0-.6-.6h-1.49a.57.57 0 0 0-.41.21 1.13 1.13 0 0 1-.75.48c-.87 0-1.1-1.02-3.31-1.02-3.13 0-5.43 2.43-5.67 5.57-.09 1.5-.09 3 0 4.5.24 3.14 2.54 5.56 5.67 5.56a4.5 4.5 0 0 0 1.79-.35c.57-.21.9.03.9.62v.3a1.99 1.99 0 0 1-2.18 1.98c-1.2 0-1.94-.57-2.09-1.29-.09-.42-.06-.69-.77-.69h-2.25a.6.6 0 0 0-.59.6c0 2.9 2.71 4.94 5.88 4.94a5.68 5.68 0 0 0 5.87-5.54Zm14.5-1.95-6.97-6.37a.44.44 0 0 1 0-.72l6.53-5.84a.57.57 0 0 0-.42-1h-.53a1.1 1.1 0 0 0-.84.4l-6 5.3c-.11.09-.23.09-.23-.06V35.55a.6.6 0 0 0-.6-.6h-.56a.6.6 0 0 0-.6.6v19.98a.6.6 0 0 0 .6.6h.56a.6.6 0 0 0 .6-.6v-5.6c0-.15.15-.15.24-.06l6.32 5.8a1.28 1.28 0 0 0 .9.46h.59a.6.6 0 0 0 .6-.37.59.59 0 0 0-.18-.68Zm5.58-18.05v-1.58a.5.5 0 0 0-.48-.48h-1.54a.5.5 0 0 0-.48.48v1.58a.47.47 0 0 0 .14.34.48.48 0 0 0 .34.14h1.55a.48.48 0 0 0 .44-.3.46.46 0 0 0 .03-.18ZM192 51.64a.6.6 0 0 0-.6-.6h-.62a.6.6 0 0 0-.6.6c0 1.67-1.04 3-2.74 3-1.52 0-2.83-1.2-2.83-3.3v-7.97l.01-.11a.28.28 0 0 1 .28-.19h4.96a.6.6 0 0 0 .6-.6v-.57a.6.6 0 0 0-.6-.6h-4.96a.28.28 0 0 1-.21-.08.28.28 0 0 1-.08-.21v-4.65a.6.6 0 0 0-.6-.6h-.6a.6.6 0 0 0-.6.6v4.65a.29.29 0 0 1-.07.21.29.29 0 0 1-.22.08h-1.69a.6.6 0 0 0-.6.6v.57a.6.6 0 0 0 .6.6h1.68a.28.28 0 0 1 .22.08l.07.1a.3.3 0 0 1 .01.12v8.27a4.63 4.63 0 0 0 2.82 4.4 4.7 4.7 0 0 0 1.8.39 4.65 4.65 0 0 0 4.57-4.8"/></g><defs><clipPath id="a"><path fill="#fff" d="M0 0h192v51H0z" transform="translate(0 20)"/></clipPath></defs></svg>