<svg xmlns:xlink="http://www.w3.org/1999/xlink" xmlns="http://www.w3.org/2000/svg" width="110" height="90" fill="none"><g fill="#3D6BFF" clip-path="url(#a)"><path d="m20.32 58.4-7.74 2.36v.46c0 2.8-.9 3.66-2.42 3.85-1.51.19-2.42-.52-2.42-3.33v-7.66c0-2.8.9-3.67 2.42-3.85 1.52-.2 2.42.45 2.42 3.25v1.67l7.74-2.35v-.42c.2-6.66-3.7-10.32-10.16-9.5C3.7 43.7-.14 48.04 0 54.78v7.01c-.14 6.37 3.42 11.5 10.16 10.61 6.7-.87 10.25-6.44 10.16-13.01v-.99Zm14.51-2.5c-1.94.61-2.9.91-4.84 1.47v10.29c-3.1.9-4.64 1.3-7.74 2.04V41.16c3.1-.72 4.64-1.14 7.74-2.04v10.75c1.94-.56 2.9-.85 4.84-1.46V37.66c3.1-.98 4.64-1.5 7.74-2.57v28.54c-3.1 1.07-4.64 1.6-7.74 2.57V55.9Zm19.99 3.83c-6.27 2.38-10.38-.86-10.16-7.59v-7c-.07-7 3.78-12.51 10.16-14.92 6.27-2.38 10.38.87 10.16 7.6v7.01c.07 7-3.78 12.5-10.16 14.9Zm2.42-19.47c0-2.8-.9-3.26-2.42-2.71-1.52.55-2.42 1.66-2.42 4.47v7.66c0 2.8.9 3.26 2.42 2.71 1.51-.55 2.42-1.66 2.42-4.47v-7.66Zm42.06 6.87c-6.46.82-10.35-2.83-10.16-9.5v-7c-.09-6.6 3.46-12.16 10.16-13.03 6.74-.88 10.3 4.24 10.16 10.61v7.01c.14 6.74-3.7 11.09-10.16 11.9Zm2.42-18.86c0-2.8-.9-3.5-2.42-3.33-1.52.2-2.42 1.1-2.42 3.92v7.67c0 2.8.9 3.44 2.42 3.25 1.51-.19 2.42-1.04 2.42-3.85v-7.66ZM79.48 40.46c0 2.8-.9 3.83-2.42 4.3-1.51.45-2.42-.05-2.42-2.85v-7.66c0-2.8.9-3.88 2.42-4.34 1.52-.46 2.42.07 2.42 2.87v2.08l7.74-2.34v-1.45c.2-6.53-3.69-10.54-10.16-8.5-6.48 2.06-10.23 7.7-10.16 14.58v7c-.22 6.74 3.86 9.93 10.16 7.94 6.4-2.02 10.24-7.05 10.16-13.97l-7.74 2.34Z"/></g><defs><clipPath id="a"><path fill="#fff" d="M0 0h109.46v90H0z"/></clipPath></defs></svg>