<svg xmlns:xlink="http://www.w3.org/1999/xlink" xmlns="http://www.w3.org/2000/svg" width="169" height="90" fill="none"><path fill="#1E236E" fill-rule="evenodd" d="M2.4 39.32C.97 41.9 0 44.54 0 46.9c0 4.06 1.3 7.36 3.43 9.76l5.46-11.1-6.5-6.24Z" clip-rule="evenodd"/><path fill="#FF2869" fill-rule="evenodd" d="M27.12 46.9c0-5.9-6.05-13.5-10.07-17.9L8.9 45.56 22.06 58.2c3.09-2.4 5.06-6.28 5.06-11.3Z" clip-rule="evenodd"/><path fill="#941F80" fill-rule="evenodd" d="M3.43 56.66A13.33 13.33 0 0 0 13.56 61c3.22 0 6.17-.98 8.5-2.8L8.9 45.56l-5.46 11.1Z" clip-rule="evenodd"/><path fill="#1E236E" fill-rule="evenodd" d="M55.97 52.7a8.07 8.07 0 0 1-5.25 5.3 9.55 9.55 0 0 1-6.38-.19 8.47 8.47 0 0 1-4.92-4.94 10.89 10.89 0 0 1-.73-4.12c0-1.43.24-2.73.72-3.9a9.7 9.7 0 0 1 1.9-3.02 8.44 8.44 0 0 1 6.05-2.66 9.4 9.4 0 0 1 3.72.7c1.1.47 2 1.11 2.73 1.94a8.63 8.63 0 0 1 1.68 3 12.16 12.16 0 0 1 .51 5H42.35c.01.76.17 1.52.45 2.23a5.08 5.08 0 0 0 2.89 2.89c.67.26 1.4.4 2.13.39 1.48 0 2.61-.35 3.4-1.06a6.1 6.1 0 0 0 1.69-2.6l3.06 1.05Zm-3.59-5.77a4.96 4.96 0 0 0-1.32-3.3c-.83-.89-2.05-1.34-3.66-1.34a4.65 4.65 0 0 0-3.53 1.45c-.4.45-.74.94-1 1.5a4.54 4.54 0 0 0-.4 1.7h9.91Zm8.98 6.08a4.97 4.97 0 0 1 1.56-3.81 5.86 5.86 0 0 1 1.76-1.1c.7-.28 1.44-.48 2.19-.6l4.9-.72c.55-.07.92-.24 1.11-.49.2-.25.29-.54.29-.87 0-.88-.31-1.64-.93-2.28-.61-.64-1.61-.96-3-.96a3.9 3.9 0 0 0-2.9 1.04 4.36 4.36 0 0 0-1.2 2.62l-3.4-.8a6.22 6.22 0 0 1 2.37-4.24 7.46 7.46 0 0 1 2.28-1.2c.9-.3 1.84-.44 2.78-.44 1.36 0 2.51.19 3.47.55a6.8 6.8 0 0 1 2.34 1.45c.6.6 1.04 1.32 1.32 2.11.27.81.41 1.65.41 2.53v9.1a19.17 19.17 0 0 0 .23 2.97h-3.47a8 8 0 0 1-.14-.9c-.04-.52-.06-1.03-.05-1.55a5.97 5.97 0 0 1-2 2c-.52.32-1.09.57-1.68.74a7.7 7.7 0 0 1-4.68-.17 6.19 6.19 0 0 1-1.9-1.2 5.16 5.16 0 0 1-1.66-3.78Zm6.56 2.45c.73 0 1.42-.1 2.06-.28a4.27 4.27 0 0 0 1.66-.91c.46-.42.83-.97 1.11-1.66.28-.69.42-1.53.42-2.5v-.84l-5.55.83c-.75.13-1.38.41-1.89.85-.5.44-.75 1.06-.75 1.87 0 .68.26 1.29.8 1.83.52.54 1.24.8 2.14.8Zm20.94-15.73h3.92v3.2h-3.92v9.44c0 .83.19 1.45.56 1.86.38.42 1.03.63 1.97.63a8.1 8.1 0 0 0 1.4-.16v3.02a8.8 8.8 0 0 1-2.42.34c-1.56 0-2.8-.45-3.7-1.34-.9-.9-1.36-2.17-1.36-3.83v-9.95h-3.47v-3.21h.98c.98 0 1.7-.26 2.13-.8a3 3 0 0 0 .66-2V34h3.25v5.74Zm15.28 3.2v14.94h-3.67V42.93h-3.35v-3.2h3.35v-3.06c0-1 .16-1.9.48-2.68a5.29 5.29 0 0 1 3.17-3.15 6.98 6.98 0 0 1 3.77-.24c.36.1.58.18.66.23v3.16a2.3 2.3 0 0 0-.51-.15 5.39 5.39 0 0 0-2 .06 2.37 2.37 0 0 0-1.64 1.41c-.18.4-.26.92-.26 1.55v2.87h4.37v3.2h-4.38Zm9.27-10.07c0-.73.25-1.34.74-1.83a2.44 2.44 0 0 1 1.8-.73 2.48 2.48 0 0 1 2.56 2.57 2.43 2.43 0 0 1-.74 1.78c-.49.5-1.1.74-1.83.74a2.44 2.44 0 0 1-1.8-.73 2.44 2.44 0 0 1-.73-1.8Zm.8 25.01h3.5V39.73h-3.5v18.14Zm21.5-14.56c-.52-.07-1.03-.11-1.55-.11a5 5 0 0 0-3.6 1.3c-.92.87-1.38 2.3-1.38 4.28v9.1h-3.55V39.72h3.48v3.17a5.9 5.9 0 0 1 2.52-2.78 5.1 5.1 0 0 1 1.47-.54 7.36 7.36 0 0 1 2.14-.12c.2.03.37.05.47.08v3.77Zm7.16 8.71c.13.96.54 1.76 1.25 2.42.7.65 1.7.98 2.98.98 1 0 1.77-.24 2.3-.72.53-.47.8-1.04.8-1.7a2 2 0 0 0-.61-1.47c-.4-.4-.98-.69-1.74-.86l-3.09-.68a5.89 5.89 0 0 1-3.34-1.81c-.79-.9-1.19-2-1.19-3.28 0-.78.17-1.52.51-2.21a6.06 6.06 0 0 1 3.43-3.07 7 7 0 0 1 2.51-.46 8.1 8.1 0 0 1 3.11.53 6.5 6.5 0 0 1 2.06 1.3 5.7 5.7 0 0 1 1.19 1.6c.26.56.45 1.04.55 1.44l-3.13 1.17a8 8 0 0 0-.27-.87 3.11 3.11 0 0 0-1.73-1.81 4.12 4.12 0 0 0-1.78-.34c-.9 0-1.63.24-2.19.74a2.2 2.2 0 0 0-.83 1.67c0 1.16.7 1.89 2.08 2.2l2.94.63a6.8 6.8 0 0 1 3.76 1.95 5 5 0 0 1 1.26 3.45c0 .67-.15 1.34-.42 1.96a5.86 5.86 0 0 1-3.28 3.15c-.83.34-1.8.5-2.94.5a8.8 8.8 0 0 1-3.22-.52 7.4 7.4 0 0 1-2.23-1.32 5.94 5.94 0 0 1-1.94-3.43l3.2-1.13Zm22.18-12.29h3.93v3.2h-3.93v9.44c0 .83.2 1.45.57 1.86.38.42 1.03.63 1.96.63a8.12 8.12 0 0 0 1.4-.16v3.02a8.74 8.74 0 0 1-2.42.34 5.06 5.06 0 0 1-3.7-1.34c-.9-.9-1.35-2.17-1.35-3.83v-9.95h-3.47v-3.21h.98c.98 0 1.69-.26 2.13-.8a3 3 0 0 0 .66-2V34h3.24v5.74Z" clip-rule="evenodd"/></svg>