<svg xmlns="http://www.w3.org/2000/svg" xmlns:xlink="http://www.w3.org/1999/xlink" width="315" height="75" viewBox="0 0 315 75" version="1.1">
    <!-- Generator: Sketch 54.1 (76490) - https://sketchapp.com -->
    <title>harness_logo copy 2</title>
    <desc>Created with Sketch.</desc>
    <defs>
        <polygon id="path-1" points="0 0.012 315 0.012 315 75 0 75"/>
    </defs>
    <g id="harness_logo-copy-2" stroke="none" stroke-width="1" fill="none" fill-rule="evenodd">
        <rect fill="#FFFFFF" opacity="0" x="0" y="0" width="315" height="75"/>
        <g id="Harness-Logo_Harness-Logo-Black">
            <path d="M40.1541,29.9763 C40.1541,29.745 40.3623,29.5371 40.5936,29.5371 L42.7437,29.5371 C42.9981,29.5371 43.1829,29.745 43.1829,29.9763 L43.1829,36.1038 L50.7207,36.1038 L50.7207,29.9763 C50.7207,29.745 50.9058,29.5371 51.1599,29.5371 L53.2872,29.5371 C53.5185,29.5371 53.7264,29.745 53.7264,29.9763 L53.7264,45.2826 C53.7264,45.5142 53.5185,45.7221 53.2872,45.7221 L51.1599,45.7221 C50.9058,45.7221 50.7207,45.5142 50.7207,45.2826 L50.7207,38.9013 L43.1829,38.9013 L43.1829,45.2826 C43.1829,45.5142 42.9981,45.7221 42.7437,45.7221 L40.5936,45.7221 C40.3623,45.7221 40.1541,45.5142 40.1541,45.2826 L40.1541,29.9763" id="Fill-1" fill="#237be6"/>
            <path d="M87.9273,40.1961 L85.6152,35.1093 L85.5459,35.1093 L83.28,40.1961 L87.9273,40.1961 Z M77.9388,45.1209 L85.1295,29.5599 C85.1991,29.4213 85.3146,29.3058 85.5228,29.3058 L85.7538,29.3058 C85.9851,29.3058 86.0775,29.4213 86.1471,29.5599 L93.2685,45.1209 C93.4071,45.4215 93.2223,45.7221 92.8752,45.7221 L90.8637,45.7221 C90.5169,45.7221 90.3552,45.5832 90.1932,45.2598 L89.0604,42.7626 L82.1469,42.7626 L81.0138,45.2598 C80.9214,45.4911 80.7132,45.7221 80.3436,45.7221 L78.3318,45.7221 C77.985,45.7221 77.7999,45.4215 77.9388,45.1209 L77.9388,45.1209 Z" id="Fill-2" fill="#237be6"/>
            <path d="M124.278,36.9129 C125.5035,36.9129 126.567,35.8494 126.567,34.5546 C126.567,33.3291 125.5035,32.3115 124.278,32.3115 L120.5091,32.3115 L120.5091,36.9129 L124.278,36.9129 Z M117.4803,29.9763 C117.4803,29.745 117.6651,29.5371 117.9195,29.5371 L124.5321,29.5371 C127.3068,29.5371 129.5727,31.7565 129.5727,34.5081 C129.5727,36.6351 128.1624,38.3694 126.1506,39.1788 L129.3186,45.0516 C129.4803,45.3522 129.3186,45.7221 128.9253,45.7221 L126.4977,45.7221 C126.2895,45.7221 126.174,45.6063 126.1275,45.5142 L123.0525,39.3867 L120.486,39.3867 L120.486,45.2826 C120.486,45.5142 120.2778,45.7221 120.0465,45.7221 L117.9195,45.7221 C117.6651,45.7221 117.4803,45.5142 117.4803,45.2826 L117.4803,29.9763 L117.4803,29.9763 Z" id="Fill-3" fill="#237be6"/>
            <path d="M154.9869,29.7219 C154.9869,29.4909 155.1948,29.3058 155.4261,29.3058 L156.0042,29.3058 L165.6228,39.5256 L165.6459,39.5256 L165.6459,29.9763 C165.6459,29.745 165.831,29.5371 166.0851,29.5371 L168.2124,29.5371 C168.4437,29.5371 168.6519,29.745 168.6519,29.9763 L168.6519,45.5373 C168.6519,45.7686 168.4437,45.9534 168.2124,45.9534 L167.6574,45.9534 L157.9929,35.3406 L157.9695,35.3406 L157.9695,45.2826 C157.9695,45.5142 157.7844,45.7221 157.5303,45.7221 L155.4261,45.7221 C155.1948,45.7221 154.9869,45.5142 154.9869,45.2826 L154.9869,29.7219" id="Fill-4" fill="#237be6"/>
            <path d="M194.9682,29.9763 C194.9682,29.745 195.153,29.5371 195.4071,29.5371 L204.8181,29.5371 C205.0722,29.5371 205.257,29.745 205.257,29.9763 L205.257,31.8723 C205.257,32.1036 205.0722,32.3115 204.8181,32.3115 L197.9739,32.3115 L197.9739,36.1038 L203.6847,36.1038 C203.9163,36.1038 204.1242,36.3117 204.1242,36.543 L204.1242,38.4621 C204.1242,38.7165 203.9163,38.9013 203.6847,38.9013 L197.9739,38.9013 L197.9739,42.9474 L204.8181,42.9474 C205.0722,42.9474 205.257,43.1559 205.257,43.3869 L205.257,45.2826 C205.257,45.5142 205.0722,45.7221 204.8181,45.7221 L195.4071,45.7221 C195.153,45.7221 194.9682,45.5142 194.9682,45.2826 L194.9682,29.9763" id="Fill-5" fill="#237be6"/>
            <path d="M229.7232,43.4562 L230.5557,42.0228 C230.7408,41.6991 231.1335,41.6991 231.342,41.8608 C231.4572,41.9304 233.3304,43.2942 234.8331,43.2942 C236.0355,43.2942 236.9373,42.5082 236.9373,41.514 C236.9373,40.3347 235.9431,39.5256 234.0009,38.7396 C231.8274,37.8609 229.6539,36.4734 229.6539,33.7452 C229.6539,31.6875 231.18,29.3058 234.8562,29.3058 C237.2148,29.3058 239.0184,30.5079 239.4807,30.855 C239.7117,30.9939 239.7813,31.3869 239.6193,31.6179 L238.7409,32.9358 C238.5558,33.2133 238.2087,33.3984 237.9312,33.2133 C237.7464,33.0978 235.9893,31.9419 234.7176,31.9419 C233.3997,31.9419 232.6827,32.82 232.6827,33.5601 C232.6827,34.647 233.5383,35.3868 235.4112,36.15 C237.654,37.0518 240.2439,38.3928 240.2439,41.3754 C240.2439,43.7568 238.1859,45.9534 234.9258,45.9534 C232.0122,45.9534 230.3013,44.5893 229.839,44.1498 C229.6308,43.9419 229.5153,43.8261 229.7232,43.4562" id="Fill-6" fill="#237be6"/>
            <g id="Group-11">
                <mask id="mask-2" fill="white">
                    <use xlink:href="#path-1"/>
                </mask>
                <g id="Clip-8"/>
                <path d="M264.3624,43.4562 L265.1946,42.0228 C265.38,41.6991 265.7727,41.6991 265.9812,41.8608 C266.0964,41.9304 267.9693,43.2942 269.4723,43.2942 C270.6747,43.2942 271.5765,42.5082 271.5765,41.514 C271.5765,40.3347 270.582,39.5256 268.6401,38.7396 C266.4666,37.8609 264.2931,36.4734 264.2931,33.7452 C264.2931,31.6875 265.8189,29.3058 269.4954,29.3058 C271.854,29.3058 273.6573,30.5079 274.1196,30.855 C274.3509,30.9939 274.4202,31.3869 274.2585,31.6179 L273.3801,32.9358 C273.1947,33.2133 272.8479,33.3984 272.5704,33.2133 C272.3856,33.0978 270.6285,31.9419 269.3565,31.9419 C268.0389,31.9419 267.3219,32.82 267.3219,33.5601 C267.3219,34.647 268.1775,35.3868 270.0504,36.15 C272.2932,37.0518 274.8828,38.3928 274.8828,41.3754 C274.8828,43.7568 272.8248,45.9534 269.565,45.9534 C266.6514,45.9534 264.9405,44.5893 264.4782,44.1498 C264.2697,43.9419 264.1545,43.8261 264.3624,43.4562" id="Fill-7" fill="#237be6" mask="url(#mask-2)"/>
                <polyline id="Fill-9" fill="#237be6" mask="url(#mask-2)" points="311.675 0 296 0 296 2.625 311.675 2.625 311.675 72.375 296 72.375 296 75 315 75 315 0 311.675 0"/>
                <polyline id="Fill-10" fill="#237be6" mask="url(#mask-2)" points="3.325 75 19 75 19 72.375 3.325 72.375 3.325 2.625 19 2.625 19 0 0 0 0 75 3.325 75"/>
            </g>
        </g>
    </g>
</svg>