<svg xmlns:xlink="http://www.w3.org/1999/xlink" xmlns="http://www.w3.org/2000/svg" width="40" height="41" fill="none"><path fill="#2E6CF4" fill-opacity=".2" d="M17.13 9.9c1-1.05 2.4-1.72 3.93-1.72a5.47 5.47 0 0 1 4.77 2.86 6.53 6.53 0 0 1 2.7-.57 6.72 6.72 0 0 1 6.67 6.79 6.73 6.73 0 0 1-7.97 6.65 4.87 4.87 0 0 1-6.4 2.03 5.57 5.57 0 0 1-5.11 3.43 5.57 5.57 0 0 1-5.23-3.68 5.21 5.21 0 0 1-6.22-5.17 5.29 5.29 0 0 1 2.58-4.56 6.02 6.02 0 0 1 5.5-8.46c1.95 0 3.69.94 4.78 2.4"/><path fill="#2E6CF4" d="M26.54 17.63a3.58 3.58 0 0 0-3.57 3.58v2.2c0 .15.12.27.27.27h1.1c.15 0 .28-.12.28-.27v-2.2a1.92 1.92 0 1 1 3.85 0v2.2c0 .15.12.27.27.27h1.1c.15 0 .28-.12.28-.27v-2.2c0-1.98-1.6-3.57-3.58-3.58Z"/><path fill="#2E6CF4" d="M23.24 23.13h6.6c.76 0 1.38.62 1.38 1.38v4.95c0 .76-.62 1.37-1.38 1.37h-6.6c-.76 0-1.37-.61-1.37-1.37V24.5c0-.76.61-1.38 1.37-1.38Z"/><path fill="#fff" d="M27.92 26.16a1.37 1.37 0 1 0-1.99 1.22l-.21 1.49a.27.27 0 0 0 .27.31h1.1a.27.27 0 0 0 .28-.31l-.22-1.49c.47-.23.76-.7.77-1.22Z"/></svg>