<svg xmlns:xlink="http://www.w3.org/1999/xlink" xmlns="http://www.w3.org/2000/svg" width="40" height="41" fill="none"><path fill="#2E6CF4" fill-opacity=".2" d="M24.6 36.21c-.03-.04-.1-.36-.08-.42a2.8 2.8 0 0 0-.2-.92c-.26-.75-.41-1.03-.77-1.37a2.22 2.22 0 0 0-.3-.25c-.16-.08-.17-.1-.24-.31a2.58 2.58 0 0 0-.1-.28 1.7 1.7 0 0 0-.41-.42c-.06-.02-.4-.24-.67-.41a.63.63 0 0 0-.2-.1.7.7 0 0 1-.11-.02l-.04-.08c-.02-.05-.06-.1-.2-.2a20.58 20.58 0 0 1-1.2-.66 4.66 4.66 0 0 0-1.1-.48c-.06 0-.3-.12-1.08-.58a6.5 6.5 0 0 0-1.12-.6c-.14-.05-.17-.05-.47-.06-.41 0-.48-.02-.66-.22-.07-.07-.18-.2-.23-.28l-.1-.15v-.17c.01-.14.03-.2.1-.37.18-.47.18-.6-.05-1.09a3.6 3.6 0 0 0-1.18-1.38 37.66 37.66 0 0 1-.7-.6c-.06-.05-.08-.08-.1-.19-.08-.43-.32-.73-.83-1.02-.07-.04-.1-.08-.12-.23a3.2 3.2 0 0 0-.37-.8c-.23-.36-.3-.53-.3-.8 0-.17.05-.23.2-.3.23-.1.36-.17.46-.27.1-.1.1-.1.1-.2a.4.4 0 0 0-.21-.33c-.19-.1-.73-.74-.89-1.02-.1-.21-.18-.42-.26-.72a6.3 6.3 0 0 0-.18-.57c-.14-.38-.15-.43-.13-.54.04-.14.05-.15.18-.1a3.07 3.07 0 0 1 .68.29c.1.01.26-.08.33-.2.05-.08.05-.08.03-.18-.04-.12-.21-.4-.28-.47a1.2 1.2 0 0 1-.25-.44c-.04-.15-.02-.17.18-.17h.15l.07-.1c.11-.17.08-.27-.14-.43a1.2 1.2 0 0 0-.52-.2l-.2-.05-.08.05a.59.59 0 0 0-.22.25c0 .04.06.34.12.47.04.1.03.13 0 .17-.03.02-.08.1-.13.17-.08.12-.1.13-.19.16-.1.02-.1.02-.21-.03a3 3 0 0 0-.25-.1l-.14-.04-.02-.1a.43.43 0 0 0-.11-.21 5.33 5.33 0 0 1-.18-.21.59.59 0 0 0-.14-.15.56.56 0 0 1-.2-.25l-.07-.28c-.05-.25-.05-.27.04-.3.04 0 .06-.03.08-.1.07-.26.06-.34-.07-.53a2.5 2.5 0 0 0-.46-.46c-.08-.04-.13-.14-.21-.37a4.64 4.64 0 0 0-.5-.96 17 17 0 0 0-.28-.44 1.21 1.21 0 0 1-.1-.31c-.11-.47-.11-.46-.08-.82a4.72 4.72 0 0 0-.07-1.35 2 2 0 0 0-.44-.63 2.24 2.24 0 0 1-.25-.31 2.33 2.33 0 0 0-.29-.5c-.08-.1-.09-.12-.15-.42a2.13 2.13 0 0 1-.04-.72c0-.48.04-.73.12-1 .03-.1.08-.16.13-.14a.8.8 0 0 1 .18.25c.05.11.32.1.44 0a.35.35 0 0 0 .07-.14l.02-.5.04-.97c.03-.4.04-.72.04-1.2 0-.42 0-.68.02-.69l.9.01a3514.1 3514.1 0 0 0 7.2.25l1.39.05c.45.01.82.03.83.04.02.02.03 1.9.05 5.33.01 3.21.03 5.03.04 5.06l1.48 1.5a5758.66 5758.66 0 0 1 12.76 12.87c.06.08.08.13.14.42.06.27.1.38.18.57.12.28.21.4.37.54.06.05.14.14.17.2.08.1.16.18.29.23.1.05.25.22.25.31 0 .06-.09.16-.28.31-.15.13-.23.18-.43.26l-.26.13c-.03.03-.13.36-.2.67-.07.27-.08.28-.08.66 0 .27.02.51.05.83l.05.43-.06.28-.05.27-.09.07-.14.12-.06.05.03.14.04.14.18.02c.15.02.17.02.26.1.1.09.14.18.14.3l-.12.12c-.12.1-.13.1-.39.13a31.77 31.77 0 0 1-2.33.26 261.05 261.05 0 0 1-5.21.5Z"/><path fill="#2E6CF4" d="M14.28 18.43a3.58 3.58 0 0 0-3.57 3.58v2.2c0 .15.12.27.27.27h1.1c.15 0 .28-.12.28-.27V22a1.92 1.92 0 1 1 3.84 0v2.2c0 .15.13.27.28.27h1.1c.15 0 .28-.12.28-.27V22c0-1.98-1.6-3.57-3.58-3.58Z"/><path fill="#2E6CF4" d="M10.98 23.93h6.6c.76 0 1.38.62 1.38 1.38v4.95c0 .76-.62 1.37-1.38 1.37h-6.6c-.76 0-1.38-.61-1.38-1.37V25.3c0-.76.62-1.38 1.38-1.38Z"/><path fill="#fff" d="M15.65 26.96a1.38 1.38 0 1 0-1.98 1.22l-.21 1.49a.27.27 0 0 0 .27.31h1.1a.28.28 0 0 0 .28-.31l-.22-1.49c.47-.23.76-.7.76-1.22Z"/></svg>