<svg xmlns:xlink="http://www.w3.org/1999/xlink" xmlns="http://www.w3.org/2000/svg" width="127" height="90" fill="none"><path fill="#000" d="M18.72 46.7c-1.5 5.34-2.74 9.83-2.84 10.44a1.27 1.27 0 0 1-1.27 1.11h-.15a1.28 1.28 0 0 1-1.11-1.4c.05-.5 1.06-4.2 2.29-8.59-1.74.8-3.17 1.33-4.05 1.44a3.2 3.2 0 0 1-.43.03c-.86 0-1.3-.41-1.5-.77a1.27 1.27 0 0 1 1.65-1.78c.76-.11 2.7-.9 5.25-2.22 1.27-4.54 2.6-9.16 3.25-11.47a1.27 1.27 0 0 1 2.45.7l-2.57 9.04c1.1-.63 2.26-1.33 3.43-2.1 6.36-4.1 10.7-8.03 11.57-10.53.33-.94.09-1.37-.38-1.73-1.11-.87-4.54-.97-10.82 1.32-9.4 3.43-19.35 10.09-20.3 13.56.1.02.2.03.3.02a1.28 1.28 0 0 1 1.3 1.72 1.27 1.27 0 0 1-1.19.82c-.27.02-1.66.04-2.46-.92a2.33 2.33 0 0 1-.46-2.06c.63-2.96 4.69-6.2 7.97-8.42a67.65 67.65 0 0 1 13.98-7.11c4.49-1.65 10.43-3.13 13.26-.94a3.75 3.75 0 0 1 1.34 4.16c-.58 2.15-3.13 5.94-11.98 11.77a89.5 89.5 0 0 1-6.53 3.9Zm85.45-1.7c-.98 2.7-3.28 9.04-.43 10.34a1.27 1.27 0 0 1-1.06 2.31c-3.61-1.64-3.15-6.1-2.13-9.82-4.05 4.8-6.58 7.24-8.59 7.24a1.9 1.9 0 0 1-1.57-.8c-1.08-1.48-.37-4.47 1.73-11.06l.23-.7-.6.82c-1.3 1.85-2.64 4.2-3.84 6.27a76.04 76.04 0 0 1-2.15 3.62c-.6.93-1.5 2.3-2.77 1.82a1.55 1.55 0 0 1-.87-.83c-.2-.48-.62-1.37.98-7.77.27-1.09.56-2.2.84-3.2a19.3 19.3 0 0 1-5.62 3.62 10.83 10.83 0 0 1-1.02 3.06c-2.33 4.6-5.16 6.8-7.95 6.16a3.11 3.11 0 0 1-2.26-2.14c-.97-2.82.71-7.27 4.5-11.92a1.27 1.27 0 0 1 1.44-.39c.26-.2.54-.4.82-.57 1-.58 1.87-.72 2.58-.4.88.4 1.37 1.34 1.62 2.06.15.43.26.87.32 1.32 1.63-.82 3.7-2.29 6.11-4.9.52-.55 1.48-1.58 2.54-.91 1.05.66.55 1.9.31 2.5-.33.85-1.62 5.45-2.36 8.88l.74-1.28c3.54-6.16 6.05-10.2 8.57-10.4a1.36 1.36 0 0 1 1.17.5c.6.76.38 1.54-.9 5.55-.67 2.08-2.12 6.64-2.13 8.37.47-.25 1.35-.86 2.81-2.36a81.23 81.23 0 0 0 4.6-5.26c2.14-2.57 2.6-3.09 3.2-3.3a1.33 1.33 0 0 1 1.4.32c.66.67.4 1.37-.27 3.24Zm-28.65 2.56a7.5 7.5 0 0 1-1.16.02 4.13 4.13 0 0 1-2.84-1.17c-2.17 3.44-2.36 5.76-2.04 6.69.15.42.35.47.43.49 1.5.34 3.4-1.46 5.1-4.83.2-.39.37-.79.5-1.2Zm.37-2.63a4.25 4.25 0 0 0-.48-1.85 4.63 4.63 0 0 0-1.87 1.72c.38.18.8.26 1.22.24.38 0 .76-.03 1.13-.1Zm50.54-4.01c-3.42 3.77-6.38 5.31-8.67 5.82-.21.66-.48 1.3-.8 1.92-2.74 5.37-5.38 6.72-7.33 6.72-.3 0-.6-.04-.88-.1a3 3 0 0 1-2.24-2.05c-1.03-2.88.78-7.64 4.84-12.71a1.28 1.28 0 0 1 1.44-.42c1.02-.85 2.39-1.61 3.51-1.1.67.3 1.22.98 1.57 1.97.3.96.44 1.96.4 2.97 1.68-.62 3.8-2 6.28-4.74a1.27 1.27 0 0 1 1.89 1.7l-.01.02Zm-11.45 5.98a5.83 5.83 0 0 1-3.76-1.83 19.67 19.67 0 0 0-1.85 3.68c-.55 1.51-.72 2.88-.45 3.63.13.37.3.4.37.4 1.53.33 3.56-1.64 5.42-5.28l.27-.6Zm.32-5.44a5.14 5.14 0 0 0-2.06 2.05c.26.26 1.02.8 2.3.89h.12c.16-1.4-.1-2.48-.36-2.94Zm-6.5-6.86c.3-1.15-.3-2.3-1.32-2.57-1.03-.27-2.1.45-2.4 1.6-.3 1.15.29 2.3 1.31 2.56 1.03.27 2.1-.45 2.4-1.6Zm-41.87 4.99c-.53-.28-1.35-.22-1.85-.15a12.37 12.37 0 0 0-6.32 3.2c.34.15.82.32 1.2.45 1.84.66 4.36 1.56 5.38 3.8.62 1.38.56 3.03-.18 4.9-2.25 5.66-6.66 7.05-9.15 7.05a4.71 4.71 0 0 1-4.4-2.85c-1.4-3.3.95-7.94 1.22-8.46a1.27 1.27 0 0 1 2.26 1.18c-.58 1.12-1.92 4.43-1.12 6.3.26.61.74 1.01 1.52 1.24.23.07 1.5.19 3.09-.55 1.29-.6 3.06-1.93 4.21-4.84.48-1.21.56-2.2.23-2.92-.57-1.26-2.42-1.92-3.9-2.45-1.45-.51-2.57-.91-3-1.92a1.9 1.9 0 0 1 0-1.5c-3.64.62-6.57 2.94-8.71 6.9a24.15 24.15 0 0 0-1.93 4.79c-.35 1.57-.62 2.67-.62 2.68a1.27 1.27 0 0 1-2.5-.47c.16-.99.39-1.97.67-2.93.62-2.78 1.22-5.52 1.65-7.65-2.65 3.57-9.16 11.65-13.68 11.68a3.53 3.53 0 0 1-3.1-1.72 3.9 3.9 0 0 1-.24-.4c-.7.26-1.44.46-2.19.57a6.5 6.5 0 0 1-5.16-1.22 1.27 1.27 0 0 1 1.6-1.98c.99.8 2.28.82 3.19.68.7-.1 1.39-.3 2.04-.58-.03-2.85 1.3-6.15 1.85-7.36 1.6-3.59 4.34-7.59 7.25-8.05 1.39-.21 2.54.24 3.18 1.24 1.4 2.21-.48 5.86-2.3 8.53a23.88 23.88 0 0 1-7.17 7.05l.08.15c.32.5.66.56.95.56.73 0 2.9-.56 7.48-5.58a66.52 66.52 0 0 0 5.25-6.57l.23-.37c.87-1.38 1.5-2.38 2.6-2.26a1.54 1.54 0 0 1 1.27 1.08c.12.32.21.62-.33 3.52a13.66 13.66 0 0 1 10.6-5c.18 0 .35.03.5.1a15.18 15.18 0 0 1 6.14-2.54c2.5-.36 3.8.5 4.46 1.27.66.78.86 2.26-1.9 4.91a1.27 1.27 0 1 1-1.76-1.83c.54-.5 1-1.07 1.41-1.68Zm-37.12 11.3a22.73 22.73 0 0 0 5.2-5.55c2.5-3.66 2.47-5.37 2.27-5.72-.05-.08-.2-.1-.36-.1l-.27.01c-1.7.27-3.97 3.5-5.33 6.58a19.4 19.4 0 0 0-1.5 4.78Zm93.6 11.35H3.45v2.55H123.4v-2.55Z"/></svg>