<svg xmlns:xlink="http://www.w3.org/1999/xlink" xmlns="http://www.w3.org/2000/svg" width="558" height="500" fill="none"><g clip-path="url(#a)"><path fill="#fff" d="M0 0h558v500H0z"/><rect width="308" height="161" x="32" y="48" fill="#FFE6E2" rx="20"/><path fill="#30333A" fill-opacity=".2" d="M56 94a22 22 0 1 1 44 0 22 22 0 0 1-44 0z" style="mix-blend-mode:difference"/><path fill="#30333A" fill-rule="evenodd" d="M80.87 85.06a1.2 1.2 0 0 0-1.62-.54.29.29 0 0 0-.13.07c-.42.28-.75.66-1 1.06a7.31 7.31 0 0 0-.68 1.33c-.41.96-.75 2.11-1.01 3.28h-.01a36.94 36.94 0 0 0-.75 4.3l-.01-.02a3.26 3.26 0 0 1-1.14-1.28c-.4-.82-.48-1.85-.48-3.19a1.2 1.2 0 0 0-2.05-.85v-.01a8.36 8.36 0 0 0-2.47 5.94l-.02-.02a8.4 8.4 0 0 0 8.4 8.4 8.41 8.41 0 0 0 8.4-8.42 8.45 8.45 0 0 0-2.47-5.94 17.93 17.93 0 0 1-1.62-1.76 15.4 15.4 0 0 1-1.45-2.44l.1.09zm-.34 15.08v-.01a3.61 3.61 0 0 1-6.15-2.56s1.04.6 3 .6c0-1.2.6-4.8 1.5-5.4.6 1.2.93 1.55 1.64 2.25a3.58 3.58 0 0 1 1.04 2.54c0 .95-.38 1.86-1.05 2.54l.02.04z" clip-rule="evenodd"/><path fill="#30333A" d="M56.75 158.82v-.96l.17-.18h.7a.82.82 0 0 0 .6-.26c.2-.2.29-.4.29-.62v-11a.8.8 0 0 0-.29-.6.8.8 0 0 0-.6-.28h-.7l-.17-.18v-.96l.17-.18h6.3l.17.18v.96l-.17.18h-.7c-.23 0-.43.1-.62.29a.82.82 0 0 0-.27.59v4.4h6.12v-4.4a.8.8 0 0 0-.29-.6.8.8 0 0 0-.6-.28h-.7l-.17-.18v-.96l.17-.18h6.3l.17.18v.96l-.17.18h-.7c-.23 0-.43.1-.62.29a.82.82 0 0 0-.27.59v11a.91.91 0 0 0 .88.88h.7l.18.18v.96l-.17.18h-6.3l-.17-.18v-.96l.17-.18h.7a.82.82 0 0 0 .6-.26c.2-.2.29-.4.29-.62v-5.28h-6.12v5.28a.91.91 0 0 0 .88.88h.7l.18.18v.96l-.17.18h-6.3l-.17-.18zm23.34.49a6.36 6.36 0 0 1-3.04-.73 5.68 5.68 0 0 1-2.15-2.04c-.52-.88-.77-1.87-.77-2.97s.25-2.09.77-2.95a5.46 5.46 0 0 1 2.15-2.05c.91-.5 1.93-.75 3.04-.75s2.13.25 3.04.75a5.3 5.3 0 0 1 2.13 2.05c.53.86.8 1.85.8 2.95s-.27 2.09-.8 2.97a5.51 5.51 0 0 1-2.13 2.04 6.3 6.3 0 0 1-3.04.73zm0-1.41c.97 0 1.7-.4 2.18-1.19.5-.8.75-1.85.75-3.14s-.25-2.34-.75-3.13c-.49-.8-1.21-1.2-2.18-1.2s-1.7.4-2.2 1.2c-.48.8-.73 1.84-.73 3.13 0 1.29.25 2.34.73 3.14.5.8 1.23 1.19 2.2 1.19zm11.93 1.4a3.4 3.4 0 0 1-2.29-.78c-.6-.55-.9-1.35-.9-2.42v-6.56H87.2l-.17-.18v-.48l4.15-3.78h.38l.17.17v2.86h2.78l.17.18v1.05l-.17.18h-2.78v6.75c0 .44.12.78.36 1.02.23.22.53.33.9.33.61 0 1.1-.33 1.43-.97l.17-.07.44.18.1.17c-.52 1.57-1.56 2.36-3.11 2.36zm9.11-.48v-.96l.18-.18h.7a.82.82 0 0 0 .6-.26c.19-.2.28-.4.28-.62v-11a.8.8 0 0 0-.28-.6.8.8 0 0 0-.6-.28h-.7l-.18-.18v-.96l.18-.18h6.07c1.41 0 2.73.27 3.96.81a6.67 6.67 0 0 1 3 2.53 7.59 7.59 0 0 1 1.16 4.36 7.7 7.7 0 0 1-1.17 4.38 6.86 6.86 0 0 1-2.99 2.53 9.95 9.95 0 0 1-3.96.79h-6.07l-.18-.18zm6.32-1.14c.9 0 1.72-.26 2.44-.77a5.1 5.1 0 0 0 1.7-2.22c.4-.97.61-2.1.61-3.39s-.2-2.42-.62-3.39a5.1 5.1 0 0 0-1.69-2.22 4.1 4.1 0 0 0-2.44-.77h-.55c-.22 0-.43.1-.62.29a.82.82 0 0 0-.26.59v11c0 .22.09.42.26.62.2.17.4.26.62.26h.55zm15.35 1.63a5.87 5.87 0 0 1-3.02-.77 5.55 5.55 0 0 1-2.06-2.1 6.14 6.14 0 0 1 .02-5.84 5.49 5.49 0 0 1 2.07-2.03 5.8 5.8 0 0 1 2.92-.75 5.3 5.3 0 0 1 2.97.8 4.85 4.85 0 0 1 1.8 2.1c.4.87.6 1.84.6 2.91l-.18.18h-8.18c0 .64.15 1.23.46 1.76.31.51.74.92 1.3 1.23.56.3 1.2.44 1.94.44 1.8 0 3.19-.73 4.15-2.2l.18-.09.33.13.07.18a5.52 5.52 0 0 1-1.96 2.97 5.5 5.5 0 0 1-3.41 1.08zm1.54-6.91c.3 0 .53-.07.66-.22a.85.85 0 0 0 .22-.6c0-.71-.23-1.28-.68-1.71a2.5 2.5 0 0 0-1.79-.64c-.85 0-1.55.3-2.1.88a3.31 3.31 0 0 0-.91 2.11l.18.18h4.42zm10.52 6.9a5.02 5.02 0 0 1-4.51-2.64 6.25 6.25 0 0 1-.68-2.98c0-1.22.25-2.27.77-3.15a5.16 5.16 0 0 1 2.04-2 5.57 5.57 0 0 1 2.73-.7c1.48 0 2.7.57 3.63 1.71h.11l1.08-1.4h.9l.18.17v7.79a.9.9 0 0 0 .88.88h.26l.18.17v.6l-.18.17-3.04 1.3h-.7l-.18-.18v-1.47c-.44.56-.93.99-1.5 1.3-.53.3-1.2.44-1.97.44zm.57-1.44c.92 0 1.61-.4 2.07-1.2.47-.8.7-1.83.7-3.1s-.23-2.28-.7-3.07a2.23 2.23 0 0 0-2.07-1.21c-.92 0-1.62.4-2.09 1.2-.46.8-.68 1.83-.68 3.09 0 1.26.23 2.3.68 3.1a2.3 2.3 0 0 0 2.09 1.19zm8.3.96v-.96l.18-.18h.27a.82.82 0 0 0 .59-.26c.2-.2.29-.4.29-.62v-10.52a.8.8 0 0 0-.29-.59.8.8 0 0 0-.6-.29h-.26l-.17-.17v-.6l.13-.17 3.43-1.3h.7l.18.18-.22 2.06v11.4c0 .22.09.42.26.62.2.17.4.26.62.26h.26l.18.18v.96l-.18.18h-5.19l-.17-.18zm10.8.49a8 8 0 0 1-2.11-.27 5.92 5.92 0 0 1-1.63-.7l-.1-.22.59-2.42.17-.18h.75l.17.18c0 .75.18 1.34.53 1.78.37.43.87.64 1.5.64.54 0 .94-.15 1.19-.46.26-.31.4-.68.4-1.1 0-.51-.14-.91-.4-1.19a3.77 3.77 0 0 0-1.39-.8 6.82 6.82 0 0 1-2.44-1.44 2.72 2.72 0 0 1-.77-1.94 3 3 0 0 1 1.12-2.44 4.44 4.44 0 0 1 2.88-.93c1.03 0 1.93.2 2.7.62l.16.22.11 2.46-.17.18h-.84l-.18-.18c-.13-1.39-.73-2.09-1.8-2.09-.4 0-.73.13-1.01.38a1.2 1.2 0 0 0-.42.97c0 .44.18.83.55 1.16.37.33.96.66 1.78 1 .9.36 1.59.78 2.07 1.25s.73 1.13.73 1.98c0 1.14-.4 2.02-1.21 2.64-.8.6-1.77.9-2.93.9z"/><path fill="#30333A" fill-opacity=".6" d="M57.89 180h1.6l4.43-8.82v-1.36H57.2v1.32h5.14v.07L57.9 180zm12.16 0h1.54v-3.85h2.19l2.06 3.85h1.75l-2.25-4.12c1.24-.46 1.87-1.5 1.87-2.87 0-1.87-1.17-3.2-3.53-3.2h-3.63V180zm1.54-5.17v-3.7h1.93c1.51 0 2.14.73 2.14 1.88s-.63 1.81-2.12 1.81h-1.95zm10.56 5.32c1.67 0 2.85-.82 3.18-2.06l-1.4-.25c-.27.72-.92 1.09-1.76 1.09-1.28 0-2.13-.83-2.17-2.3h5.43v-.53c0-2.76-1.65-3.84-3.38-3.84-2.13 0-3.53 1.63-3.53 3.97 0 2.37 1.38 3.92 3.63 3.92zM80 175.52c.06-1.09.85-2.03 2.06-2.03 1.15 0 1.9.86 1.91 2.03H80zm7.08 4.48h1.48v-4.7c0-1.04.72-1.75 1.57-1.75.82 0 1.4.54 1.4 1.37V180H93v-4.87c0-.92.56-1.58 1.53-1.58.78 0 1.43.43 1.43 1.47V180h1.49v-5.12c0-1.75-.98-2.62-2.36-2.62-1.1 0-1.92.53-2.29 1.35h-.08a2.07 2.07 0 0 0-2.05-1.35c-1.01 0-1.76.5-2.08 1.35h-.1v-1.25h-1.42V180zm12.37 0h1.49v-7.64h-1.49V180zm.75-8.81c.51 0 .94-.4.94-.89s-.43-.89-.94-.89c-.52 0-.94.4-.94.89s.42.89.94.89zm4.22 4.28c0-1.22.75-1.92 1.78-1.92 1.01 0 1.62.66 1.62 1.77V180h1.49v-4.86c0-1.89-1.04-2.88-2.6-2.88-1.15 0-1.9.54-2.25 1.35h-.1v-1.25h-1.42V180h1.48v-4.53zm9.74 4.68c1.4 0 1.94-.85 2.21-1.34h.12V180h1.46v-10.18h-1.49v3.78h-.09c-.27-.47-.78-1.34-2.2-1.34-1.84 0-3.2 1.46-3.2 3.94 0 2.47 1.34 3.95 3.2 3.95zm.33-1.27c-1.33 0-2.02-1.17-2.02-2.7 0-1.52.68-2.65 2.02-2.65 1.3 0 2 1.06 2 2.65 0 1.6-.72 2.7-2 2.7zm8.87 1.27c1.66 0 2.84-.82 3.18-2.06l-1.4-.25c-.28.72-.92 1.09-1.77 1.09-1.27 0-2.12-.83-2.16-2.3h5.42v-.53c0-2.76-1.65-3.84-3.38-3.84-2.12 0-3.53 1.63-3.53 3.97 0 2.37 1.39 3.92 3.64 3.92zm-2.15-4.63c.06-1.09.85-2.03 2.05-2.03 1.16 0 1.91.86 1.92 2.03h-3.97zm7.07 4.48h1.5v-4.66c0-1 .76-1.72 1.82-1.72.3 0 .65.05.77.09v-1.43a6 6 0 0 0-.63-.03c-.9 0-1.66.5-1.94 1.33h-.08v-1.22h-1.44V180zm11.1-5.77c-.3-1.19-1.24-1.97-2.89-1.97-1.72 0-2.95.91-2.95 2.27 0 1.08.66 1.8 2.1 2.12l1.28.28c.74.17 1.08.5 1.08.97 0 .6-.63 1.06-1.6 1.06-.9 0-1.47-.39-1.64-1.14l-1.44.22c.25 1.35 1.37 2.11 3.09 2.11 1.84 0 3.12-.98 3.12-2.36 0-1.08-.69-1.74-2.09-2.07l-1.21-.27c-.84-.2-1.2-.49-1.2-1 0-.59.63-1 1.48-1 .92 0 1.35.5 1.52 1.02l1.35-.24z"/><rect width="308" height="161" x="364" y="48" fill="#FFF7E8" rx="20"/><path fill="#30333A" fill-opacity=".2" d="M388 94a22 22 0 1 1 44 0 22 22 0 0 1-44 0z" style="mix-blend-mode:difference"/><path fill="#30333A" d="M410 84.4h-.01a7.19 7.19 0 0 0-7.2 7.2v4.3l-.85.84h-.02a1.17 1.17 0 0 0 0 1.69c.22.21.53.35.84.35h14.4a1.2 1.2 0 0 0 1.2-1.22 1.25 1.25 0 0 0-.37-.85l-.85-.85v-4.3a7.2 7.2 0 0 0-7.2-7.2l.06.04zm0 19.2h-.01a3.6 3.6 0 0 1-3.6-3.6h7.2c0 1.98-1.62 3.6-3.6 3.6h.01zm-13.49 55.7a7.31 7.31 0 0 1-3.43-.74 5.26 5.26 0 0 1-2.15-2.16 6.8 6.8 0 0 1-.73-3.25v-7.35a.8.8 0 0 0-.29-.6c-.19-.18-.39-.28-.59-.28h-.7l-.18-.18v-.96l.18-.18h6.27l.17.18v.96l-.17.18h-.69c-.22 0-.42.1-.61.29a.82.82 0 0 0-.27.59v7.35c0 1.42.36 2.48 1.08 3.17a3.93 3.93 0 0 0 2.77 1c1.12 0 2.03-.33 2.75-1 .74-.7 1.1-1.75 1.1-3.17v-7.35a.8.8 0 0 0-.28-.6.8.8 0 0 0-.6-.28h-.7l-.18-.18v-.96l.18-.18h4.7l.18.18v.96l-.17.18h-.7c-.21 0-.4.1-.6.29a.8.8 0 0 0-.29.59v7.3a7.1 7.1 0 0 1-.72 3.28 5.03 5.03 0 0 1-2.07 2.18c-.9.5-2 .75-3.26.75zm8.07 4.5v-.97l.17-.18h.27a.8.8 0 0 0 .59-.28.8.8 0 0 0 .29-.6v-10.51a.8.8 0 0 0-.29-.6.8.8 0 0 0-.6-.28h-.26l-.17-.18v-.6l.17-.17 3.39-1.3h.7l.18.18-.11 1.03c.34-.45.8-.82 1.36-1.1a4.34 4.34 0 0 1 1.9-.42 5.05 5.05 0 0 1 4.44 2.7c.48.88.73 1.89.73 3.05 0 1.27-.25 2.34-.75 3.2a5 5 0 0 1-1.92 1.92 5.16 5.16 0 0 1-2.44.62c-.78 0-1.46-.14-2.04-.42a3.58 3.58 0 0 1-1.39-1.17v4.05c0 .22.09.42.26.6.2.19.4.28.62.28h.26l.18.18v.97l-.18.17h-5.19l-.17-.17zm6.97-5.94c.92 0 1.61-.4 2.07-1.2.45-.8.68-1.83.68-3.1s-.23-2.28-.68-3.07a2.23 2.23 0 0 0-2.07-1.21c-.92 0-1.61.4-2.07 1.2-.45.8-.68 1.83-.68 3.09 0 1.26.23 2.3.68 3.1a2.25 2.25 0 0 0 2.07 1.19zm12.8 1.45a5.74 5.74 0 0 1-2.75-.68 5.5 5.5 0 0 1-2.03-1.96 5.67 5.67 0 0 1-.74-2.93c0-1.21.28-2.27.83-3.17a5.67 5.67 0 0 1 2.25-2.04 6.52 6.52 0 0 1 2.99-.7c1.32 0 2.43.25 3.34.76l.16.22.1 2.89-.17.17h-1.08l-.17-.17v-.4c0-.64-.2-1.16-.6-1.54-.4-.38-.93-.57-1.6-.57-1 0-1.76.4-2.3 1.2-.5.8-.76 1.76-.76 2.89 0 .75.14 1.44.42 2.07a3.6 3.6 0 0 0 1.18 1.47 3 3 0 0 0 1.79.55c1.4 0 2.47-.66 3.19-2l.2-.09.32.11.1.18a5.8 5.8 0 0 1-1.64 2.7 4.3 4.3 0 0 1-3.03 1.04zm12.08 0a6.36 6.36 0 0 1-3.03-.73 5.67 5.67 0 0 1-2.16-2.04c-.51-.88-.77-1.87-.77-2.97s.26-2.09.77-2.95a5.46 5.46 0 0 1 2.16-2.05 6.2 6.2 0 0 1 3.03-.75 6.2 6.2 0 0 1 3.04.75 5.32 5.32 0 0 1 2.13 2.05c.53.86.8 1.85.8 2.95s-.27 2.09-.8 2.97a5.52 5.52 0 0 1-2.13 2.04 6.3 6.3 0 0 1-3.04.73zm0-1.41c.97 0 1.7-.4 2.18-1.19.5-.8.75-1.85.75-3.14s-.25-2.34-.75-3.13c-.48-.8-1.2-1.2-2.18-1.2s-1.7.4-2.2 1.2c-.48.8-.72 1.84-.72 3.13 0 1.29.24 2.34.72 3.14.5.8 1.23 1.19 2.2 1.19zm7.47.92v-.96l.17-.18h.27a.82.82 0 0 0 .6-.26c.18-.2.28-.4.28-.62v-5.54a.8.8 0 0 0-.29-.6.8.8 0 0 0-.6-.28h-.26l-.17-.18v-.6l.13-.17 3.21-1.3h.7l.18.18-.22 1.47a4 4 0 0 1 1.56-1.4 4.32 4.32 0 0 1 2.1-.56c.79 0 1.48.16 2.08.47.6.29 1.02.75 1.26 1.38a4.04 4.04 0 0 1 3.58-1.85c1.06 0 1.9.31 2.53.93.65.61.97 1.46.97 2.53v5.52a.91.91 0 0 0 .88.88h.27l.17.18v.96l-.17.18h-5.2l-.17-.18v-.96l.17-.18h.27a.82.82 0 0 0 .6-.26c.18-.2.28-.4.28-.62v-5.1c0-.7-.15-1.22-.44-1.59-.28-.37-.7-.55-1.28-.55-.66 0-1.2.27-1.65.8a3.1 3.1 0 0 0-.66 2.08v4.36a.91.91 0 0 0 .88.88h.27l.17.18v.96l-.17.18H451l-.17-.18v-.96l.17-.18h.27a.82.82 0 0 0 .6-.26c.18-.2.28-.4.28-.62v-5.1c0-1.43-.57-2.14-1.7-2.14-.66 0-1.21.27-1.67.8a3.1 3.1 0 0 0-.66 2.08v4.36a.91.91 0 0 0 .88.88h.27l.17.18v.96l-.17.18h-5.2l-.17-.18zm23.57-12.18a1.81 1.81 0 0 1-1.3-.53 1.81 1.81 0 0 1-.53-1.3c0-.51.18-.95.53-1.3a1.81 1.81 0 0 1 1.3-.53 1.8 1.8 0 0 1 1.82 1.83c0 .5-.17.93-.52 1.3a1.76 1.76 0 0 1-1.3.53zm-2.8 12.18v-.96l.18-.18h.26a.82.82 0 0 0 .6-.26c.19-.2.28-.4.28-.62v-5.54a.8.8 0 0 0-.28-.6.8.8 0 0 0-.6-.28h-.26l-.18-.18v-.6l.14-.17 3.43-1.3h.66l.22.22-.22 2.03v6.42a.9.9 0 0 0 .88.88h.26l.18.18v.96l-.18.18h-5.19l-.18-.18zm7.05 0v-.96l.18-.18h.26a.82.82 0 0 0 .6-.26c.19-.2.28-.4.28-.62v-5.54a.8.8 0 0 0-.29-.6.8.8 0 0 0-.59-.28h-.26l-.18-.18v-.6l.13-.17 3.21-1.3h.7l.19.18-.22 1.47a4.49 4.49 0 0 1 1.58-1.43 4.52 4.52 0 0 1 2.2-.53c1.19 0 2.12.33 2.81.97.7.63 1.06 1.56 1.06 2.8v5.21c0 .22.09.42.26.62.2.17.4.26.62.26h.26l.18.18v.96l-.18.18h-5.19l-.17-.18v-.96l.17-.18h.27a.82.82 0 0 0 .6-.26c.18-.2.28-.4.28-.62v-5.1c0-.7-.2-1.24-.58-1.59a2.07 2.07 0 0 0-1.5-.53c-.71 0-1.3.27-1.77.8a3.04 3.04 0 0 0-.69 2.09v4.33c0 .22.1.42.27.62.19.17.4.26.61.26h.27l.17.18v.96l-.17.18h-5.2l-.17-.18zm25.23-9.2h-1.7a3.82 3.82 0 0 1 .18 4.39 4.28 4.28 0 0 1-1.71 1.5 5.2 5.2 0 0 1-2.4.54 4.71 4.71 0 0 1-1.5-.22l-.8 1.06h4.15c1.32 0 2.29.28 2.9.83.63.56.95 1.33.95 2.31a3.3 3.3 0 0 1-.84 2.23 5.41 5.41 0 0 1-2.22 1.5 8.27 8.27 0 0 1-2.97.52c-1.48 0-2.6-.27-3.37-.81a2.42 2.42 0 0 1-1.12-2.07 2.5 2.5 0 0 1 .35-1.26c.24-.4.6-.73 1.06-1h-1.4l-.18-.14v-1.21l2.09-2.6a4.33 4.33 0 0 1-1.35-1.38 3.74 3.74 0 0 1-.48-1.87c0-.76.2-1.45.62-2.07.4-.63.97-1.13 1.7-1.5s1.52-.55 2.41-.55c.69 0 1.33.1 1.91.31h3.72l.2.2v1.1l-.2.2zm-5.63 5.07c.62 0 1.1-.24 1.45-.73.37-.5.55-1.17.55-2.02s-.18-1.52-.55-2c-.35-.5-.83-.75-1.45-.75s-1.1.25-1.47.75a3.24 3.24 0 0 0-.55 2c0 .85.18 1.52.55 2.02.36.49.85.73 1.47.73zm-1.5 4.44a1.97 1.97 0 0 0-.79.73 2.15 2.15 0 0 0-.28 1.08c0 .58.23 1.05.7 1.38.47.35 1.13.53 1.98.53.59 0 1.1-.1 1.52-.3.42-.21.75-.48.97-.8.23-.32.35-.67.35-1.03 0-.47-.16-.85-.48-1.15-.31-.3-.81-.44-1.5-.44h-2.46z"/><path fill="#30333A" fill-opacity=".6" d="M389.89 180h1.6l4.43-8.82v-1.36h-6.73v1.32h5.14v.07L389.9 180zm12.16 0h1.54v-3.85h2.19l2.06 3.85h1.75l-2.25-4.12c1.25-.46 1.87-1.5 1.87-2.87 0-1.87-1.17-3.2-3.53-3.2h-3.63V180zm1.54-5.17v-3.7h1.93c1.51 0 2.14.73 2.14 1.88s-.63 1.81-2.12 1.81h-1.95zm10.56 5.32c1.67 0 2.85-.82 3.18-2.06l-1.4-.25c-.27.72-.92 1.09-1.76 1.09-1.28 0-2.13-.83-2.17-2.3h5.43v-.53c0-2.76-1.65-3.84-3.38-3.84-2.13 0-3.53 1.63-3.53 3.97 0 2.37 1.38 3.92 3.63 3.92zm-2.15-4.63c.06-1.09.85-2.03 2.06-2.03 1.15 0 1.9.86 1.91 2.03H412zm7.08 4.48h1.48v-4.7c0-1.04.73-1.75 1.57-1.75.82 0 1.4.54 1.4 1.37V180H425v-4.87c0-.92.56-1.58 1.53-1.58.79 0 1.43.43 1.43 1.47V180h1.49v-5.12c0-1.75-.98-2.62-2.36-2.62-1.1 0-1.92.53-2.29 1.35h-.08a2.07 2.07 0 0 0-2.05-1.35c-1.01 0-1.76.5-2.08 1.35h-.1v-1.25h-1.42V180zm12.37 0h1.49v-7.64h-1.49V180zm.75-8.81c.51 0 .94-.4.94-.89s-.43-.89-.94-.89c-.52 0-.94.4-.94.89s.42.89.94.89zm4.22 4.28c0-1.22.75-1.92 1.78-1.92 1.01 0 1.62.66 1.62 1.77V180h1.49v-4.86c0-1.89-1.04-2.88-2.6-2.88-1.15 0-1.9.54-2.25 1.35h-.1v-1.25h-1.42V180h1.48v-4.53zm9.74 4.68c1.4 0 1.94-.85 2.21-1.34h.12V180h1.46v-10.18h-1.49v3.78h-.09c-.27-.47-.78-1.34-2.2-1.34-1.84 0-3.2 1.46-3.2 3.94 0 2.47 1.34 3.95 3.2 3.95zm.33-1.27c-1.33 0-2.02-1.17-2.02-2.7 0-1.52.68-2.65 2.02-2.65 1.3 0 2 1.06 2 2.65 0 1.6-.72 2.7-2 2.7zm8.87 1.27c1.66 0 2.84-.82 3.18-2.06l-1.4-.25c-.28.72-.92 1.09-1.77 1.09-1.27 0-2.12-.83-2.16-2.3h5.42v-.53c0-2.76-1.65-3.84-3.38-3.84-2.12 0-3.53 1.63-3.53 3.97 0 2.37 1.39 3.92 3.64 3.92zm-2.15-4.63c.06-1.09.85-2.03 2.05-2.03 1.16 0 1.91.86 1.92 2.03h-3.97zm7.07 4.48h1.5v-4.66c0-1 .76-1.72 1.82-1.72.3 0 .65.05.77.09v-1.43a6 6 0 0 0-.63-.03c-.9 0-1.66.5-1.94 1.33h-.08v-1.22h-1.44V180zm11.1-5.77c-.3-1.19-1.24-1.97-2.89-1.97-1.72 0-2.95.91-2.95 2.27 0 1.08.66 1.8 2.1 2.12l1.28.28c.74.17 1.08.5 1.08.97 0 .6-.63 1.06-1.6 1.06-.9 0-1.47-.39-1.64-1.14l-1.44.22c.25 1.35 1.37 2.11 3.09 2.11 1.84 0 3.12-.98 3.12-2.36 0-1.08-.69-1.74-2.09-2.07l-1.21-.27c-.84-.2-1.2-.49-1.2-1 0-.59.63-1 1.48-1 .92 0 1.35.5 1.52 1.02l1.35-.24z"/><rect width="308" height="161" x="32" y="233" fill="#EBF1FE" rx="20"/><path fill="#30333A" fill-opacity=".2" d="M56 279a22 22 0 1 1 44 0 22 22 0 0 1-44 0z" style="mix-blend-mode:difference"/><path fill="#30333A" fill-rule="evenodd" d="M78 288.6h-.01a9.61 9.61 0 0 0 0-19.21h-.01a9.6 9.6 0 0 0-9.6 9.6 9.6 9.6 0 0 0 9.6 9.59l.02.02zm1.2-14.4c0-.67-.54-1.2-1.2-1.2-.67 0-1.2.53-1.2 1.2v4.8l-.01-.01c0 .31.12.61.35.84l3.38 3.38-.01-.01a1.2 1.2 0 0 0 1.69 0 1.21 1.21 0 0 0 0-1.7l-3.05-3.05v-4.31l.05.06z" clip-rule="evenodd"/><path fill="#30333A" d="M56.75 343.82v-.96l.17-.18h.7a.82.82 0 0 0 .6-.26c.2-.2.29-.4.29-.62v-11a.8.8 0 0 0-.29-.6.8.8 0 0 0-.6-.28h-.7l-.17-.18v-.96l.17-.18h6.1c1.16 0 2.18.2 3.06.6a4.4 4.4 0 0 1 2.81 4.2 4.43 4.43 0 0 1-2.81 4.22c-.88.38-1.9.57-3.06.57h-1.39v3.61c0 .22.09.43.27.62.19.17.4.26.61.26h.7l.18.18v.96l-.17.18h-6.3l-.17-.18zm6.16-6.95c.97 0 1.69-.32 2.15-.97.47-.66.7-1.5.7-2.5s-.23-1.84-.7-2.49c-.45-.66-1.15-.99-2.09-.99h-.46c-.22 0-.42.1-.61.29a.82.82 0 0 0-.27.59v6.07h1.28zm12.2 7.44a5.02 5.02 0 0 1-4.51-2.64 6.25 6.25 0 0 1-.68-3c0-1.21.25-2.26.77-3.14a5.16 5.16 0 0 1 2.04-2 5.56 5.56 0 0 1 2.73-.7c1.48 0 2.7.57 3.63 1.71h.11l1.08-1.4h.9l.18.17v7.79a.9.9 0 0 0 .88.88h.26l.18.17v.6l-.18.17-3.03 1.3h-.7l-.18-.18v-1.47a4.98 4.98 0 0 1-1.5 1.3c-.54.3-1.2.44-1.98.44zm.57-1.45c.93 0 1.61-.4 2.07-1.2.47-.8.7-1.83.7-3.1s-.23-2.28-.7-3.07a2.23 2.23 0 0 0-2.07-1.21c-.92 0-1.62.4-2.09 1.2-.45.8-.68 1.83-.68 3.09 0 1.26.23 2.3.68 3.1a2.3 2.3 0 0 0 2.1 1.19zm12.38 1.45a8 8 0 0 1-2.11-.27 5.94 5.94 0 0 1-1.63-.7l-.11-.22.6-2.42.17-.18h.75l.17.18c0 .75.18 1.34.53 1.78.37.43.87.64 1.5.64.54 0 .94-.15 1.18-.46.27-.31.4-.68.4-1.1 0-.52-.13-.91-.4-1.19a3.77 3.77 0 0 0-1.38-.8 6.82 6.82 0 0 1-2.44-1.44 2.72 2.72 0 0 1-.77-1.94 3 3 0 0 1 1.12-2.44 4.44 4.44 0 0 1 2.88-.93c1.03 0 1.93.2 2.7.62l.16.22.11 2.46-.18.18h-.83l-.18-.18c-.13-1.39-.73-2.09-1.8-2.09-.4 0-.73.13-1.01.38a1.2 1.2 0 0 0-.42.97c0 .44.18.83.55 1.16.37.33.96.66 1.78 1 .9.36 1.58.78 2.07 1.25s.72 1.13.72 1.98c0 1.14-.4 2.02-1.2 2.64-.8.6-1.77.9-2.93.9zm10 0a3.4 3.4 0 0 1-2.29-.8c-.6-.54-.9-1.34-.9-2.41v-6.56h-1.63l-.18-.18v-.48l4.16-3.78h.38l.17.17v2.86h2.77l.18.18v1.05l-.18.18h-2.77v6.75c0 .44.12.78.35 1.02.24.22.54.33.9.33.62 0 1.1-.33 1.44-.97l.17-.07.44.18.09.17c-.51 1.57-1.55 2.36-3.1 2.36zm17.4 0a8.92 8.92 0 0 1-4.2-1 7.47 7.47 0 0 1-2.99-2.8c-.73-1.22-1.1-2.63-1.1-4.21s.37-2.98 1.1-4.2a7.47 7.47 0 0 1 3-2.82 8.92 8.92 0 0 1 4.2-.99c.93 0 1.81.1 2.64.31a10 10 0 0 1 2.17.75l.2.24.22 3.32-.17.18h-1.41l-.18-.18-.04-.4a2.9 2.9 0 0 0-1.04-2.06 3.59 3.59 0 0 0-2.3-.7 4.4 4.4 0 0 0-2.69.85 5.45 5.45 0 0 0-1.78 2.33c-.41 1-.62 2.12-.62 3.37s.2 2.37.62 3.37 1.02 1.78 1.78 2.35c.78.56 1.67.84 2.68.84.8 0 1.52-.24 2.18-.7a2.82 2.82 0 0 0 1.17-2.08l.04-.4.18-.17h1.4l.18.18-.22 3.32-.2.24a11.18 11.18 0 0 1-4.81 1.05zm7.05-.49v-.96l.18-.18h.26a.82.82 0 0 0 .6-.26c.18-.2.28-.4.28-.62v-10.52a.8.8 0 0 0-.29-.59.8.8 0 0 0-.59-.29h-.26l-.18-.17v-.6l.13-.17 3.43-1.3h.7l.18.18-.22 2.06v11.4c0 .22.1.42.27.62.19.17.4.26.61.26h.27l.17.18v.96l-.17.18h-5.2l-.17-.18zm12.77.49a6.36 6.36 0 0 1-3.03-.73 5.68 5.68 0 0 1-2.16-2.04c-.51-.88-.77-1.87-.77-2.97s.26-2.09.77-2.95a5.46 5.46 0 0 1 2.16-2.05 6.2 6.2 0 0 1 3.03-.75 6.2 6.2 0 0 1 3.04.75 5.3 5.3 0 0 1 2.13 2.05c.53.86.8 1.85.8 2.95s-.27 2.09-.8 2.97a5.5 5.5 0 0 1-2.13 2.04c-.9.49-1.92.73-3.04.73zm0-1.41c.97 0 1.7-.4 2.18-1.19.5-.8.75-1.85.75-3.14s-.25-2.34-.75-3.13c-.48-.8-1.2-1.2-2.18-1.2s-1.7.4-2.2 1.2a6 6 0 0 0-.72 3.13c0 1.29.24 2.33.72 3.14.5.8 1.24 1.19 2.2 1.19zm11.06 1.4a8.02 8.02 0 0 1-2.1-.26 5.95 5.95 0 0 1-1.64-.7l-.1-.22.59-2.42.17-.18h.75l.18.18c0 .75.17 1.34.53 1.78.36.43.86.64 1.5.64.54 0 .93-.15 1.18-.46.26-.31.4-.68.4-1.1 0-.52-.14-.91-.4-1.19a3.77 3.77 0 0 0-1.39-.8 6.82 6.82 0 0 1-2.44-1.44 2.72 2.72 0 0 1-.77-1.94 3 3 0 0 1 1.12-2.44 4.44 4.44 0 0 1 2.89-.93c1.02 0 1.93.2 2.7.62l.16.22.1 2.46-.17.18h-.84l-.17-.18c-.13-1.39-.73-2.09-1.8-2.09-.4 0-.74.13-1.02.38a1.2 1.2 0 0 0-.42.97c0 .44.19.83.55 1.16.37.33.97.66 1.79 1 .9.36 1.58.78 2.06 1.25s.73 1.13.73 1.98c0 1.14-.4 2.02-1.2 2.64-.8.6-1.78.9-2.94.9zm11.43 0a5.87 5.87 0 0 1-3-.76 5.54 5.54 0 0 1-2.08-2.1 6.14 6.14 0 0 1 .02-5.84 5.47 5.47 0 0 1 2.07-2.03c.88-.5 1.86-.75 2.93-.75a5.3 5.3 0 0 1 2.97.8 4.86 4.86 0 0 1 1.8 2.1c.4.87.6 1.84.6 2.91l-.18.18h-8.18c0 .64.15 1.23.46 1.76.3.51.74.92 1.3 1.23.55.3 1.2.44 1.93.44 1.8 0 3.2-.73 4.16-2.2l.18-.09.33.13.06.18a5.52 5.52 0 0 1-1.96 2.97 5.5 5.5 0 0 1-3.4 1.08zm1.54-6.9c.31 0 .53-.07.66-.22a.85.85 0 0 0 .22-.6 2.2 2.2 0 0 0-.68-1.71 2.5 2.5 0 0 0-1.78-.64c-.85 0-1.55.3-2.11.88a3.3 3.3 0 0 0-.9 2.11l.17.18h4.43zm10.17 6.42v-.96l.17-.18h.7a.82.82 0 0 0 .6-.26c.2-.2.29-.4.29-.62v-11a.8.8 0 0 0-.29-.6.8.8 0 0 0-.6-.28h-.7l-.17-.18v-.96l.17-.18h6.07c1.41 0 2.73.27 3.96.81a6.67 6.67 0 0 1 3 2.53 7.59 7.59 0 0 1 1.16 4.36 7.7 7.7 0 0 1-1.16 4.38 6.86 6.86 0 0 1-3 2.53 9.95 9.95 0 0 1-3.96.79h-6.07l-.17-.18zm6.31-1.14c.91 0 1.72-.26 2.44-.77a5.1 5.1 0 0 0 1.7-2.22c.4-.97.61-2.1.61-3.39s-.2-2.42-.61-3.39a5.1 5.1 0 0 0-1.7-2.22 4.1 4.1 0 0 0-2.44-.77h-.55c-.22 0-.43.1-.62.29a.82.82 0 0 0-.26.59v11a.9.9 0 0 0 .88.88h.55zm14.73 1.63a5.02 5.02 0 0 1-4.51-2.64 6.25 6.25 0 0 1-.68-3c0-1.21.26-2.26.77-3.14a5.16 5.16 0 0 1 2.05-2 5.57 5.57 0 0 1 2.73-.7 4.5 4.5 0 0 1 3.63 1.71h.1l1.08-1.4h.9l.18.17v7.79c0 .22.09.42.27.61.19.18.4.27.61.27h.27l.17.17v.6l-.17.17-3.04 1.3h-.7l-.18-.18v-1.47a4.03 4.03 0 0 1-3.48 1.74zm.58-1.45c.92 0 1.6-.4 2.06-1.2.47-.8.7-1.83.7-3.1s-.23-2.28-.7-3.07a2.23 2.23 0 0 0-2.06-1.21c-.93 0-1.62.4-2.1 1.2-.45.8-.68 1.82-.68 3.09 0 1.26.23 2.3.69 3.1a2.28 2.28 0 0 0 2.09 1.19zm12.51 1.45a3.4 3.4 0 0 1-2.29-.8c-.6-.54-.9-1.34-.9-2.41v-6.56h-1.63l-.17-.18v-.48l4.15-3.78h.38l.17.17v2.86h2.78l.17.18v1.05l-.17.18h-2.78v6.75c0 .44.12.78.36 1.02.23.22.53.33.9.33.61 0 1.1-.33 1.43-.97l.17-.07.44.18.1.17c-.52 1.57-1.56 2.36-3.11 2.36zm9.87 0a5.87 5.87 0 0 1-3.01-.77 5.54 5.54 0 0 1-2.07-2.1 6.14 6.14 0 0 1 .02-5.84 5.47 5.47 0 0 1 2.07-2.03c.88-.5 1.86-.75 2.93-.75a5.3 5.3 0 0 1 2.97.8 4.86 4.86 0 0 1 1.8 2.1c.4.87.6 1.84.6 2.91l-.18.18h-8.18c0 .64.15 1.23.46 1.76.3.51.74.92 1.3 1.23.55.3 1.2.44 1.93.44 1.8 0 3.2-.73 4.16-2.2l.18-.09.33.13.06.18a5.52 5.52 0 0 1-1.96 2.97 5.5 5.5 0 0 1-3.4 1.08zm1.54-6.91c.31 0 .53-.07.66-.22a.85.85 0 0 0 .22-.6 2.2 2.2 0 0 0-.68-1.71 2.5 2.5 0 0 0-1.78-.64c-.85 0-1.55.3-2.11.88a3.3 3.3 0 0 0-.9 2.11l.17.18h4.42zm9.23 6.9a8 8 0 0 1-2.11-.26 5.92 5.92 0 0 1-1.63-.7l-.11-.22.6-2.42.17-.18h.75l.17.18c0 .75.18 1.34.53 1.78.37.43.86.64 1.5.64.54 0 .93-.15 1.18-.46.27-.31.4-.68.4-1.1 0-.52-.13-.91-.4-1.19a3.77 3.77 0 0 0-1.38-.8 6.82 6.82 0 0 1-2.44-1.44 2.72 2.72 0 0 1-.77-1.94 3 3 0 0 1 1.12-2.44 4.44 4.44 0 0 1 2.88-.93c1.03 0 1.93.2 2.7.62l.16.22.11 2.46-.18.18h-.83l-.18-.18c-.13-1.39-.73-2.09-1.8-2.09-.4 0-.74.13-1.01.38a1.2 1.2 0 0 0-.42.97c0 .44.18.82.55 1.16.36.32.96.65 1.78 1 .9.36 1.58.78 2.07 1.25s.72 1.12.72 1.98c0 1.14-.4 2.02-1.2 2.64-.8.6-1.77.9-2.93.9z"/><path fill="#30333A" fill-opacity=".6" d="M60.63 365.14c2.08 0 3.6-1.24 3.6-2.93 0-1.3-.77-2.22-2.13-2.42v-.08a2.23 2.23 0 0 0 1.76-2.26c0-1.5-1.23-2.77-3.19-2.77-1.87 0-3.37 1.13-3.42 2.78h1.49c.03-.93.91-1.5 1.91-1.5 1.04 0 1.72.63 1.72 1.57 0 .99-.79 1.63-1.91 1.63h-.87v1.26h.86c1.42 0 2.23.71 2.23 1.74 0 .99-.86 1.66-2.06 1.66-1.1 0-1.96-.57-2.02-1.47h-1.56c.06 1.66 1.53 2.79 3.6 2.79zm18.27-5.23c0-3.26-1.95-5.23-4.59-5.23-2.64 0-4.59 1.97-4.59 5.23 0 3.25 1.95 5.23 4.6 5.23 2.63 0 4.58-1.97 4.58-5.23zm-1.53 0c0 2.48-1.3 3.83-3.06 3.83-1.75 0-3.06-1.35-3.06-3.83s1.3-3.83 3.06-3.83c1.75 0 3.06 1.35 3.06 3.83zm3.32 7.95h1.49v-4.05h.09c.27.49.81 1.34 2.2 1.34 1.86 0 3.2-1.48 3.2-3.95 0-2.48-1.36-3.94-3.2-3.94a2.3 2.3 0 0 0-2.2 1.34h-.13v-1.24H80.7v10.5zm1.46-6.68c0-1.6.7-2.65 2-2.65 1.34 0 2.02 1.14 2.02 2.65 0 1.53-.7 2.7-2.03 2.7-1.27 0-2-1.1-2-2.7zm7.18 6.68h1.49v-4.05h.09c.27.49.81 1.34 2.2 1.34 1.86 0 3.2-1.48 3.2-3.95 0-2.48-1.36-3.94-3.2-3.94a2.3 2.3 0 0 0-2.2 1.34h-.13v-1.24h-1.45v10.5zm1.46-6.68c0-1.6.7-2.65 2-2.65 1.34 0 2.02 1.14 2.02 2.65 0 1.53-.7 2.7-2.03 2.7-1.27 0-1.99-1.1-1.99-2.7zm10.4 3.97c2.15 0 3.56-1.57 3.56-3.93 0-2.38-1.4-3.96-3.56-3.96-2.15 0-3.56 1.58-3.56 3.96 0 2.36 1.4 3.93 3.56 3.93zm0-1.24c-1.4 0-2.06-1.23-2.06-2.7 0-1.46.66-2.7 2.06-2.7s2.06 1.24 2.06 2.7c0 1.47-.66 2.7-2.06 2.7zm5.22 1.09h1.49v-4.66c0-1 .77-1.72 1.82-1.72.3 0 .66.05.78.09v-1.43a6 6 0 0 0-.64-.03c-.89 0-1.66.5-1.93 1.33h-.08v-1.22h-1.44V365zm9.39-7.64h-1.57v-1.83h-1.48v1.83h-1.12v1.2h1.12v4.5c0 1.4 1.05 2.06 2.22 2.04.47 0 .8-.1.97-.16l-.27-1.23c-.1.02-.28.07-.52.07-.49 0-.92-.16-.92-1.02v-4.2h1.57v-1.2zm6.48 4.47a1.8 1.8 0 0 1-1.8 1.92c-.91 0-1.55-.67-1.55-1.7v-4.69h-1.49v4.86c0 1.9 1.04 2.88 2.5 2.88 1.16 0 1.94-.6 2.29-1.42h.08V365h1.46v-7.64h-1.49v4.47zm4.97-1.36c0-1.22.75-1.92 1.78-1.92 1.01 0 1.63.66 1.63 1.77V365h1.48v-4.86c0-1.89-1.04-2.88-2.6-2.88-1.15 0-1.9.54-2.25 1.35h-.1v-1.25h-1.42V365h1.48v-4.53zm6.89 4.53h1.48v-7.64h-1.48V365zm.75-8.82c.5 0 .94-.4.94-.88 0-.49-.43-.89-.94-.89-.52 0-.94.4-.94.89s.42.88.94.88zm6.3 1.18h-1.57v-1.83h-1.49v1.83h-1.11v1.2h1.11v4.5c0 1.4 1.06 2.06 2.23 2.04.47 0 .8-.1.97-.16l-.27-1.23c-.1.02-.29.07-.52.07-.49 0-.92-.16-.92-1.02v-4.2h1.57v-1.2zm1.64 7.64h1.49v-7.64h-1.49V365zm.75-8.82c.51 0 .94-.4.94-.88 0-.49-.43-.89-.94-.89-.52 0-.94.4-.94.89s.43.88.94.88zm6.03 8.97c1.66 0 2.84-.82 3.18-2.06l-1.4-.25c-.28.72-.92 1.09-1.77 1.09-1.27 0-2.12-.83-2.16-2.3h5.42v-.53c0-2.76-1.65-3.84-3.38-3.84-2.12 0-3.53 1.62-3.53 3.97 0 2.37 1.39 3.92 3.64 3.92zm-2.15-4.63c.06-1.09.85-2.03 2.05-2.03 1.16 0 1.91.86 1.92 2.03h-3.97zm12.8-1.3c-.31-1.18-1.24-1.96-2.9-1.96-1.72 0-2.94.91-2.94 2.27 0 1.08.66 1.8 2.09 2.12l1.3.28c.73.17 1.07.5 1.07.97 0 .6-.63 1.06-1.6 1.06-.9 0-1.47-.39-1.65-1.14l-1.43.22c.24 1.35 1.37 2.11 3.08 2.11 1.85 0 3.13-.98 3.13-2.36 0-1.08-.69-1.74-2.1-2.07l-1.2-.27c-.85-.2-1.2-.49-1.2-1 0-.59.63-1 1.47-1 .93 0 1.35.5 1.53 1.02l1.35-.24z"/><rect width="308" height="161" x="364" y="233" fill="#E4FDF0" rx="20"/><path fill="#30333A" fill-opacity=".2" d="M388 279a22 22 0 1 1 44 0 22 22 0 0 1-44 0z" style="mix-blend-mode:difference"/><path fill="#30333A" d="m402.38 273.94 3.55 2.36 3.53-4.94h-.01a.84.84 0 0 1 1.37-.01l3.53 4.94 3.54-2.36a.83.83 0 0 1 1.16.22c.11.16.15.36.14.57l-1.4 11.78v-.01a.85.85 0 0 1-.84.74h-13.7a.85.85 0 0 1-.84-.75l-1.4-11.79a.83.83 0 0 1 .73-.94.8.8 0 0 1 .57.13l.07.06zm7.77 8.27h-.01a1.7 1.7 0 0 0 1.69-1.69 1.7 1.7 0 0 0-1.7-1.7 1.68 1.68 0 1 0 0 3.37l.02.02zm-21.4 61.61v-.96l.17-.18h.7a.82.82 0 0 0 .6-.26c.2-.2.29-.4.29-.62v-11a.8.8 0 0 0-.29-.6.8.8 0 0 0-.6-.28h-.7l-.17-.18v-.96l.17-.18h6.1c1.16 0 2.18.2 3.06.6a4.4 4.4 0 0 1 2.81 4.2 4.43 4.43 0 0 1-2.81 4.22c-.88.38-1.9.57-3.06.57h-1.39v3.61c0 .22.09.43.27.62.19.17.4.26.61.26h.7l.18.18v.96l-.17.18h-6.3l-.17-.18zm6.16-6.95c.97 0 1.68-.32 2.15-.97.47-.66.7-1.5.7-2.5s-.23-1.84-.7-2.49c-.45-.66-1.15-.99-2.09-.99h-.46c-.22 0-.42.1-.61.29a.82.82 0 0 0-.27.59v6.07h1.28zm10.06-5.23a1.81 1.81 0 0 1-1.3-.53 1.81 1.81 0 0 1-.53-1.3c0-.51.18-.95.53-1.3a1.81 1.81 0 0 1 1.3-.53c.51 0 .95.18 1.3.53.35.35.53.79.53 1.3 0 .5-.18.93-.53 1.3a1.76 1.76 0 0 1-1.3.53zm-2.8 12.18v-.96l.18-.18h.27a.82.82 0 0 0 .59-.26c.19-.2.29-.4.29-.62v-5.54a.8.8 0 0 0-.29-.6.8.8 0 0 0-.6-.28h-.26l-.17-.18v-.6l.13-.17 3.43-1.3h.66l.22.22-.22 2.03v6.42a.9.9 0 0 0 .88.88h.26l.18.18v.96l-.18.18h-5.19l-.17-.18zm6.79 4.98v-.97l.18-.18h.26a.8.8 0 0 0 .6-.28.8.8 0 0 0 .28-.6v-10.51a.8.8 0 0 0-.29-.6.8.8 0 0 0-.6-.28h-.25l-.18-.18v-.6l.18-.17 3.38-1.3h.7l.18.18-.1 1.03c.33-.45.78-.82 1.36-1.1a4.34 4.34 0 0 1 1.89-.42 5.05 5.05 0 0 1 4.44 2.7c.49.87.73 1.89.73 3.05 0 1.27-.25 2.34-.75 3.2a5 5 0 0 1-1.91 1.92 5.16 5.16 0 0 1-2.45.62c-.77 0-1.46-.14-2.04-.42a3.58 3.58 0 0 1-1.39-1.17v4.05c0 .22.1.42.27.6.19.19.4.28.61.28h.27l.17.18v.97l-.17.17h-5.2l-.17-.17zm6.97-5.94c.93 0 1.62-.4 2.07-1.2.46-.8.68-1.83.68-3.1s-.22-2.28-.68-3.07a2.23 2.23 0 0 0-2.07-1.21c-.92 0-1.61.4-2.06 1.2-.46.8-.69 1.83-.69 3.09 0 1.26.23 2.3.69 3.1a2.22 2.22 0 0 0 2.06 1.19zm13.09 1.45a5.87 5.87 0 0 1-3.02-.77 5.55 5.55 0 0 1-2.06-2.1 6.14 6.14 0 0 1 .02-5.84 5.48 5.48 0 0 1 2.07-2.03 5.8 5.8 0 0 1 2.92-.75 5.3 5.3 0 0 1 2.97.8 4.85 4.85 0 0 1 1.8 2.1c.4.87.6 1.84.6 2.91l-.18.18h-8.18c0 .64.15 1.23.46 1.76.3.51.74.92 1.3 1.23.56.3 1.2.44 1.93.44 1.8 0 3.2-.73 4.16-2.2l.18-.09.33.13.06.18a5.52 5.52 0 0 1-1.95 2.97 5.5 5.5 0 0 1-3.41 1.08zm1.54-6.91c.3 0 .53-.07.66-.22a.85.85 0 0 0 .22-.6c0-.71-.23-1.29-.68-1.71a2.5 2.5 0 0 0-1.79-.64c-.85 0-1.55.3-2.1.88a3.3 3.3 0 0 0-.91 2.11l.18.18h4.42zm4.9 6.42v-.96l.17-.18h.26a.82.82 0 0 0 .6-.26c.19-.2.28-.4.28-.62v-10.52a.8.8 0 0 0-.28-.59.8.8 0 0 0-.6-.29h-.26l-.18-.17v-.6l.14-.17 3.43-1.3h.7l.18.18-.22 2.06v11.4c0 .22.09.42.26.62.2.17.4.26.62.26h.26l.18.18v.96l-.18.18h-5.2l-.17-.18zm9.6-12.18a1.81 1.81 0 0 1-1.3-.53 1.81 1.81 0 0 1-.53-1.3c0-.51.18-.95.53-1.3a1.81 1.81 0 0 1 1.3-.53c.51 0 .95.18 1.3.53.35.35.53.79.53 1.3 0 .5-.18.93-.53 1.3a1.76 1.76 0 0 1-1.3.53zm-2.8 12.18v-.96l.18-.18h.27a.82.82 0 0 0 .59-.26c.19-.2.29-.4.29-.62v-5.54a.8.8 0 0 0-.29-.6.8.8 0 0 0-.6-.28h-.26l-.17-.18v-.6l.13-.17 3.43-1.3h.66l.22.22-.22 2.03v6.42c0 .22.09.42.26.62.2.17.4.26.62.26h.26l.18.18v.96l-.18.18h-5.19l-.17-.18zm7.05 0v-.96l.18-.18h.26a.82.82 0 0 0 .6-.26c.19-.2.28-.4.28-.62v-5.54a.8.8 0 0 0-.28-.6.8.8 0 0 0-.6-.28h-.26l-.18-.18v-.6l.13-.17 3.22-1.3h.7l.18.18-.22 1.47a4.5 4.5 0 0 1 1.58-1.43 4.52 4.52 0 0 1 2.2-.53c1.19 0 2.13.33 2.82.97.7.63 1.05 1.56 1.05 2.8v5.21a.91.91 0 0 0 .88.88h.27l.17.18v.96l-.17.18h-5.2l-.17-.18v-.96l.17-.18h.27a.82.82 0 0 0 .6-.26c.18-.2.28-.4.28-.62v-5.1c0-.7-.2-1.24-.57-1.59a2.07 2.07 0 0 0-1.5-.53c-.72 0-1.31.27-1.78.8a3.04 3.04 0 0 0-.68 2.09v4.33a.9.9 0 0 0 .88.88h.26l.18.18v.96l-.18.18h-5.2l-.17-.18zm20.16.49a5.87 5.87 0 0 1-3.01-.77 5.55 5.55 0 0 1-2.07-2.1 6.14 6.14 0 0 1 .02-5.84 5.48 5.48 0 0 1 2.07-2.03c.88-.5 1.86-.75 2.93-.75a5.3 5.3 0 0 1 2.97.8 4.85 4.85 0 0 1 1.8 2.1c.4.87.6 1.84.6 2.91l-.18.18h-8.19a3.35 3.35 0 0 0 1.77 2.99c.55.3 1.2.44 1.93.44a4.7 4.7 0 0 0 4.16-2.2l.17-.09.33.13.07.18a5.52 5.52 0 0 1-1.96 2.97 5.5 5.5 0 0 1-3.4 1.08zm1.54-6.91c.31 0 .53-.07.66-.22a.85.85 0 0 0 .22-.6 2.2 2.2 0 0 0-.68-1.71 2.5 2.5 0 0 0-1.78-.64c-.85 0-1.56.3-2.11.88a3.3 3.3 0 0 0-.9 2.11l.17.18h4.42zm10.16 6.42v-.96l.18-.18h.7a.82.82 0 0 0 .6-.26c.19-.2.28-.4.28-.62v-11a.8.8 0 0 0-.28-.6.8.8 0 0 0-.6-.28h-.7l-.18-.18v-.96l.18-.18h6.45a6.6 6.6 0 0 1 4.09 1.14 3.88 3.88 0 0 1 1.52 3.3c0 1.2-.4 2.19-1.21 2.95a5.95 5.95 0 0 1-3.28 1.43l1.6.46 2.53 4.3c.2.33.47.5.8.5h.7l.18.18v.96l-.18.18h-3.67l-.29-.18-3.78-6.33h-.75v4.31c0 .22.09.42.26.62.2.17.4.26.62.26h.7l.18.18v.96l-.18.18h-6.29l-.18-.18zm6.36-7.65c.94 0 1.63-.28 2.07-.84.45-.56.68-1.32.68-2.29 0-.96-.23-1.73-.68-2.28-.44-.56-1.13-.84-2.07-.84h-.6c-.21 0-.42.1-.6.29a.82.82 0 0 0-.27.59v5.37h1.47zm13.52 8.14a5.87 5.87 0 0 1-3.01-.77 5.55 5.55 0 0 1-2.07-2.1 6.14 6.14 0 0 1 .02-5.84 5.48 5.48 0 0 1 2.07-2.03c.88-.5 1.86-.75 2.93-.75a5.3 5.3 0 0 1 2.97.8 4.85 4.85 0 0 1 1.8 2.1c.4.87.6 1.84.6 2.91l-.18.18H498c0 .64.15 1.23.46 1.76.3.51.74.92 1.3 1.23.55.3 1.2.44 1.93.44 1.8 0 3.2-.73 4.16-2.2l.18-.09.33.13.06.18a5.52 5.52 0 0 1-1.96 2.97 5.5 5.5 0 0 1-3.4 1.08zm1.54-6.91c.31 0 .53-.07.66-.22a.85.85 0 0 0 .22-.6 2.2 2.2 0 0 0-.68-1.71 2.5 2.5 0 0 0-1.78-.64c-.85 0-1.55.3-2.11.88a3.3 3.3 0 0 0-.9 2.11l.17.18h4.42zm9.9 6.42-4.46-8.93a1 1 0 0 0-.24-.33.57.57 0 0 0-.38-.1h-.46l-.17-.18v-.97l.17-.18h5.26l.18.18v.97l-.18.17h-.44c-.34 0-.5.15-.5.44 0 .15.04.31.13.49l2.3 4.64 2.23-4.64c.09-.18.13-.34.13-.49a.38.38 0 0 0-.13-.3c-.09-.1-.21-.14-.38-.14h-.44l-.17-.17v-.97l.17-.18h3.61l.18.18v.97l-.18.17h-.42c-.3 0-.53.15-.68.44l-4.33 8.93-.18.18h-.44l-.17-.18zm10.39-12.18c-.5 0-.93-.18-1.3-.53a1.81 1.81 0 0 1-.53-1.3c0-.51.18-.95.53-1.3a1.81 1.81 0 0 1 1.3-.53c.5 0 .94.18 1.3.53.35.35.52.79.52 1.3 0 .5-.17.93-.53 1.3a1.76 1.76 0 0 1-1.3.53zm-2.8 12.18v-.96l.18-.18h.26a.82.82 0 0 0 .6-.26c.19-.2.28-.4.28-.62v-5.54a.8.8 0 0 0-.28-.6.8.8 0 0 0-.6-.28h-.26l-.18-.18v-.6l.13-.17 3.44-1.3h.66l.22.22-.22 2.03v6.42a.9.9 0 0 0 .88.88h.26l.18.18v.96l-.18.18h-5.2l-.17-.18zm12.6.49a5.87 5.87 0 0 1-3.01-.77 5.55 5.55 0 0 1-2.07-2.1 6.14 6.14 0 0 1 .02-5.84 5.48 5.48 0 0 1 2.07-2.03 5.8 5.8 0 0 1 2.92-.75 5.3 5.3 0 0 1 2.97.8 4.85 4.85 0 0 1 1.8 2.1c.4.87.6 1.84.6 2.91l-.17.18h-8.19c0 .64.16 1.23.46 1.76.31.51.74.92 1.3 1.23.56.3 1.2.44 1.94.44a4.7 4.7 0 0 0 4.16-2.2l.17-.09.33.13.07.18a5.52 5.52 0 0 1-1.96 2.97 5.5 5.5 0 0 1-3.41 1.08zm1.54-6.91c.3 0 .53-.07.66-.22a.85.85 0 0 0 .22-.6c0-.71-.23-1.29-.68-1.71a2.5 2.5 0 0 0-1.78-.64c-.86 0-1.56.3-2.12.88a3.3 3.3 0 0 0-.9 2.11l.18.18h4.42zm9.55 6.38-3.83-8.67a1.14 1.14 0 0 0-.4-.5.76.76 0 0 0-.48-.16h-.49l-.17-.17v-.97l.17-.18h5.9l.18.18v.97l-.18.17h-.7c-.39 0-.58.17-.58.5 0 .17.03.3.07.38l1.8 4.25 1.79-4.25a.62.62 0 0 0 .04-.26.6.6 0 0 0-.18-.44.53.53 0 0 0-.41-.18h-.44l-.1-.17v-.97l.1-.18h4.57l.18.18v.97l-.18.17H550a.56.56 0 0 0-.44.2.57.57 0 0 0-.1.68l1.86 4.45 1.98-4.45c.04-.13.07-.25.07-.35a.47.47 0 0 0-.16-.37.51.51 0 0 0-.4-.16h-.7l-.17-.17v-.97l.17-.18h4.14l.18.18v.97l-.18.17h-.6c-.4 0-.7.22-.88.66l-3.85 8.67-.22.22h-.44l-.22-.22-2.68-6.38-2.68 6.38-.25.22h-.46l-.2-.22z"/><path fill="#30333A" fill-opacity=".6" d="M389.89 365h1.6l4.43-8.82v-1.36h-6.73v1.32h5.14v.07L389.9 365zm21-5.1c0-3.25-1.94-5.22-4.58-5.22s-4.59 1.97-4.59 5.23c0 3.25 1.95 5.23 4.6 5.23 2.63 0 4.58-1.97 4.58-5.23zm-1.51 0c0 2.49-1.32 3.84-3.07 3.84-1.75 0-3.06-1.35-3.06-3.83s1.3-3.83 3.06-3.83c1.75 0 3.06 1.35 3.06 3.83zm3.31 7.96h1.49v-4.05h.09c.27.49.81 1.34 2.2 1.34 1.85 0 3.2-1.48 3.2-3.95 0-2.48-1.36-3.94-3.2-3.94a2.3 2.3 0 0 0-2.2 1.34h-.13v-1.24h-1.45v10.5zm1.46-6.68c0-1.6.7-2.65 2-2.65 1.34 0 2.02 1.14 2.02 2.65 0 1.53-.7 2.7-2.03 2.7-1.27 0-2-1.1-2-2.7zm7.18 6.68h1.49v-4.05h.09c.27.49.82 1.34 2.2 1.34 1.86 0 3.2-1.48 3.2-3.95 0-2.48-1.36-3.94-3.2-3.94a2.3 2.3 0 0 0-2.2 1.34h-.12v-1.24h-1.46v10.5zm1.46-6.68c0-1.6.7-2.65 2-2.65 1.34 0 2.02 1.14 2.02 2.65 0 1.53-.7 2.7-2.03 2.7-1.27 0-1.99-1.1-1.99-2.7zm10.4 3.97c2.15 0 3.56-1.57 3.56-3.93 0-2.38-1.4-3.96-3.56-3.96-2.15 0-3.56 1.58-3.56 3.96 0 2.36 1.4 3.93 3.56 3.93zm0-1.24c-1.4 0-2.06-1.23-2.06-2.7 0-1.46.66-2.7 2.07-2.7 1.4 0 2.05 1.24 2.05 2.7 0 1.47-.66 2.7-2.05 2.7zm5.22 1.09h1.49v-4.66c0-1 .77-1.72 1.82-1.72.3 0 .66.05.78.09v-1.43a6 6 0 0 0-.63-.03c-.9 0-1.67.5-1.94 1.33h-.08v-1.22h-1.44V365zm9.39-7.64h-1.57v-1.83h-1.48v1.83h-1.12v1.2h1.12v4.5c0 1.4 1.05 2.06 2.22 2.04.48 0 .8-.1.97-.16l-.27-1.23c-.1.02-.28.07-.52.07-.48 0-.92-.16-.92-1.02v-4.2h1.57v-1.2zm6.48 4.47a1.8 1.8 0 0 1-1.8 1.92c-.91 0-1.55-.67-1.55-1.7v-4.69h-1.49v4.86c0 1.9 1.04 2.88 2.5 2.88 1.16 0 1.94-.6 2.29-1.42h.08V365h1.46v-7.64h-1.49v4.47zm4.98-1.36c0-1.22.74-1.92 1.78-1.92 1 0 1.62.66 1.62 1.77V365h1.48v-4.86c0-1.89-1.04-2.88-2.6-2.88-1.15 0-1.9.54-2.25 1.35h-.1v-1.25h-1.42V365h1.49v-4.53zm6.88 4.53h1.48v-7.64h-1.48V365zm.75-8.82c.5 0 .94-.4.94-.88 0-.49-.43-.89-.94-.89-.52 0-.94.4-.94.89s.42.88.94.88zm6.3 1.18h-1.57v-1.83h-1.49v1.83h-1.11v1.2h1.11v4.5c0 1.4 1.06 2.06 2.23 2.04.47 0 .8-.1.97-.16l-.27-1.23c-.1.02-.29.07-.52.07-.49 0-.92-.16-.92-1.02v-4.2h1.57v-1.2zm1.64 7.64h1.49v-7.64h-1.49V365zm.75-8.82c.51 0 .94-.4.94-.88 0-.49-.43-.89-.94-.89s-.94.4-.94.89.43.88.94.88zm6.03 8.97c1.66 0 2.84-.82 3.18-2.06l-1.4-.25c-.27.72-.92 1.09-1.77 1.09-1.27 0-2.12-.83-2.16-2.3h5.43v-.53c0-2.76-1.65-3.84-3.39-3.84-2.12 0-3.52 1.62-3.52 3.97 0 2.37 1.38 3.92 3.63 3.92zm-2.15-4.63c.06-1.09.85-2.03 2.05-2.03 1.16 0 1.91.86 1.92 2.03h-3.97zm12.8-1.3c-.31-1.18-1.24-1.96-2.9-1.96-1.72 0-2.94.91-2.94 2.27 0 1.08.66 1.8 2.09 2.12l1.3.28c.73.17 1.07.5 1.07.97 0 .6-.63 1.06-1.6 1.06-.9 0-1.47-.39-1.65-1.14l-1.43.22c.25 1.35 1.37 2.11 3.08 2.11 1.85 0 3.13-.98 3.13-2.36 0-1.08-.69-1.74-2.1-2.07l-1.2-.27c-.84-.2-1.2-.49-1.2-1 0-.59.63-1 1.47-1 .93 0 1.36.5 1.53 1.02l1.35-.24z"/><rect width="308" height="161" x="32" y="418" fill="#EFE8F8" rx="20"/><path fill="#30333A" fill-opacity=".2" d="M56 464a22 22 0 1 1 44 0 22 22 0 0 1-44 0z" style="mix-blend-mode:difference"/><path fill="#30333A" d="M76.75 461.96h8.94c1.14 0 1.55 1.54.6 2.22l-3.33 2.42h-.01a1.17 1.17 0 0 0-.45 1.32l1.28 3.93c.36 1.1-.9 2-1.84 1.32l-3.33-2.43-.02-.01a1.18 1.18 0 0 0-1.4 0l-3.34 2.42a1.2 1.2 0 0 1-1.84-1.34l1.28-3.92h-.01a1.2 1.2 0 0 0-.44-1.34l-3.34-2.43a1.2 1.2 0 0 1 .69-2.16h6.56z"/><circle cx="77.94" cy="457.68" r="2.68" fill="#30333A"/><rect width="308" height="161" x="364" y="418" fill="#FFE6E2" rx="20"/><path fill="#30333A" fill-opacity=".2" d="M388 464a22 22 0 1 1 44 0 22 22 0 0 1-44 0z" style="mix-blend-mode:difference"/><path fill="#30333A" d="M408.75 461.96h8.94c1.14 0 1.55 1.54.6 2.22l-3.33 2.42h-.01a1.17 1.17 0 0 0-.44 1.32l1.27 3.93c.36 1.1-.9 2-1.84 1.32l-3.33-2.43-.02-.01a1.18 1.18 0 0 0-1.4 0l-3.34 2.42a1.2 1.2 0 0 1-1.84-1.34l1.28-3.92h-.01a1.2 1.2 0 0 0-.44-1.34l-3.34-2.43a1.2 1.2 0 0 1 .69-2.16h6.56z"/><circle cx="409.94" cy="457.68" r="2.68" fill="#30333A"/></g><defs><clipPath id="a"><path fill="#fff" d="M0 0h558v500H0z"/></clipPath></defs></svg>