<svg xmlns:xlink="http://www.w3.org/1999/xlink" xmlns="http://www.w3.org/2000/svg" width="40" height="41" fill="none"><path fill="#2E6CF4" d="m19.76 4.6.5 1.06c.02.04.05.07.1.07l1.13.18a.13.13 0 0 1 .07.22l-.82.84a.13.13 0 0 0-.04.12l.2 1.18a.13.13 0 0 1-.2.14l-1-.55a.13.13 0 0 0-.12 0l-1 .55a.13.13 0 0 1-.2-.14l.2-1.18c0-.04 0-.09-.04-.12l-.82-.84a.13.13 0 0 1 .07-.23l1.13-.17c.05 0 .08-.03.1-.07l.5-1.07a.13.13 0 0 1 .24 0Zm0 26.24.5 1.06c.02.04.05.07.1.08l1.13.17a.13.13 0 0 1 .07.22l-.82.85a.13.13 0 0 0-.04.11l.2 1.19a.13.13 0 0 1-.2.13l-1-.55a.13.13 0 0 0-.12 0l-1 .55a.13.13 0 0 1-.2-.13l.2-1.2c0-.03 0-.07-.03-.1l-.83-.85a.13.13 0 0 1 .07-.22l1.13-.17a.14.14 0 0 0 .1-.08l.5-1.06a.13.13 0 0 1 .24 0ZM13.37 6.37l.5 1.06c.02.04.05.07.1.08l1.12.17a.13.13 0 0 1 .08.22l-.83.85a.13.13 0 0 0-.03.11l.2 1.19a.13.13 0 0 1-.2.14l-1-.56a.13.13 0 0 0-.12 0l-1 .56a.13.13 0 0 1-.2-.14l.2-1.19c0-.04 0-.08-.04-.11l-.82-.85a.13.13 0 0 1 .07-.22l1.13-.17c.04 0 .08-.04.1-.08l.5-1.06a.13.13 0 0 1 .24 0ZM26.49 29.1l.5 1.06c.02.04.05.07.1.08l1.13.17a.13.13 0 0 1 .07.22l-.82.85a.13.13 0 0 0-.04.1l.2 1.2a.13.13 0 0 1-.2.13l-1-.55a.13.13 0 0 0-.12 0l-1 .55a.13.13 0 0 1-.2-.13l.2-1.2c0-.03 0-.07-.04-.1l-.82-.85a.13.13 0 0 1 .07-.22l1.13-.17a.14.14 0 0 0 .1-.08l.5-1.06a.13.13 0 0 1 .24 0ZM8.6 10.9l.5 1.07c.02.04.06.07.1.07l1.13.17a.13.13 0 0 1 .08.23l-.83.84a.13.13 0 0 0-.03.11l.19 1.2a.13.13 0 0 1-.2.13l-1-.55a.13.13 0 0 0-.12 0l-1 .55a.13.13 0 0 1-.19-.14l.2-1.19c0-.04-.01-.08-.04-.1l-.83-.86a.13.13 0 0 1 .08-.22l1.13-.17c.04 0 .08-.03.1-.07l.5-1.07a.13.13 0 0 1 .23 0Zm22.73 13.12.5 1.07c.02.04.06.07.1.07l1.13.18a.13.13 0 0 1 .07.22l-.82.84a.13.13 0 0 0-.04.12l.2 1.18a.13.13 0 0 1-.2.14l-1-.55a.13.13 0 0 0-.12 0l-1 .55a.13.13 0 0 1-.2-.14l.2-1.18c0-.05 0-.09-.03-.12l-.83-.84a.13.13 0 0 1 .08-.22l1.12-.18c.05 0 .08-.03.1-.07l.5-1.07a.13.13 0 0 1 .24 0Zm-24.69-6.3.5 1.06c.02.04.05.07.1.08l1.13.17a.13.13 0 0 1 .07.22l-.83.84a.13.13 0 0 0-.03.12l.2 1.19a.13.13 0 0 1-.2.13l-1-.55a.13.13 0 0 0-.12 0l-1 .55a.13.13 0 0 1-.2-.13l.2-1.2c0-.03 0-.07-.04-.1l-.82-.85a.13.13 0 0 1 .07-.22l1.13-.18c.04 0 .08-.03.1-.07l.5-1.07a.13.13 0 0 1 .24 0Zm26.24 0 .5 1.06c.02.04.06.07.1.08l1.13.17a.13.13 0 0 1 .07.22l-.82.84a.13.13 0 0 0-.04.12l.2 1.19a.13.13 0 0 1-.2.13l-1-.55a.13.13 0 0 0-.12 0l-1 .55a.13.13 0 0 1-.2-.13l.2-1.2c0-.03 0-.07-.03-.1l-.83-.85a.13.13 0 0 1 .07-.22l1.13-.18c.05 0 .08-.03.1-.07l.5-1.07a.13.13 0 0 1 .24 0ZM8.84 23.91l.5 1.07c.01.04.05.07.1.08l1.12.17a.13.13 0 0 1 .08.22l-.83.84a.13.13 0 0 0-.03.12l.19 1.18a.13.13 0 0 1-.2.14l-.99-.55a.13.13 0 0 0-.13 0l-1 .55a.13.13 0 0 1-.19-.14l.2-1.18c0-.05-.01-.09-.04-.12l-.82-.84a.13.13 0 0 1 .07-.22L8 25.06a.16.16 0 0 0 .1-.08l.5-1.07a.13.13 0 0 1 .24 0ZM31.56 10.8l.5 1.06c.02.04.06.07.1.07l1.13.18a.13.13 0 0 1 .07.22l-.82.84a.13.13 0 0 0-.04.12l.2 1.18a.13.13 0 0 1-.2.14l-1-.55a.13.13 0 0 0-.12 0l-1 .55a.13.13 0 0 1-.19-.14l.2-1.19c0-.04-.01-.08-.04-.1l-.83-.85a.13.13 0 0 1 .08-.23l1.13-.17c.04 0 .08-.03.1-.07l.5-1.07a.13.13 0 0 1 .23 0ZM13.14 28.45l.5 1.06c.01.04.05.07.1.08l1.12.17a.13.13 0 0 1 .08.22l-.83.85a.13.13 0 0 0-.03.1l.2 1.2a.13.13 0 0 1-.2.13l-1-.55a.13.13 0 0 0-.13 0l-1 .55a.13.13 0 0 1-.19-.13l.2-1.19a.15.15 0 0 0-.04-.11l-.82-.85a.13.13 0 0 1 .07-.22l1.13-.17a.16.16 0 0 0 .1-.08l.5-1.06a.13.13 0 0 1 .24 0ZM26.26 5.72l.5 1.07c.02.04.05.06.1.07l1.13.17a.13.13 0 0 1 .07.22l-.83.85a.13.13 0 0 0-.03.11l.2 1.19a.13.13 0 0 1-.2.14l-1-.56a.13.13 0 0 0-.13 0l-1 .56a.13.13 0 0 1-.18-.14l.19-1.19c0-.04 0-.08-.04-.1l-.82-.86a.13.13 0 0 1 .07-.22l1.13-.17c.04 0 .08-.03.1-.07l.5-1.07a.13.13 0 0 1 .24 0Z"/></svg>