<svg xmlns:xlink="http://www.w3.org/1999/xlink" xmlns="http://www.w3.org/2000/svg" width="130" height="90" fill="none"><g clip-path="url(#a)"><g clip-path="url(#b)"><path fill="#0B254B" d="m111.56 36.96 3.8 13.6 3.8-13.6h4.56l-6.08 21.76h-4.56l-3.8-13.6-3.8 13.6h-4.56l-6.09-21.76h4.57l3.8 13.6 3.8-13.6h4.56Z"/><path fill="#267FFD" d="M126.68 53.23h.04a2.77 2.77 0 0 1 2.74 2.8v.04a2.77 2.77 0 0 1-2.74 2.8h-.04a2.77 2.77 0 0 1-2.74-2.8v-.05a2.77 2.77 0 0 1 2.74-2.79Z"/><path fill="#0B254B" d="M82.85 36.96h.02c5.88 0 10.63 4.87 10.63 10.88 0 6-4.75 10.88-10.63 10.88h-.02a10.76 10.76 0 0 1-10.63-10.88c0-6.01 4.76-10.88 10.63-10.88Zm0 4.66a6.15 6.15 0 0 0-6.07 6.22 6.15 6.15 0 0 0 6.07 6.21h.02a6.15 6.15 0 0 0 6.07-6.21 6.15 6.15 0 0 0-6.07-6.22h-.02ZM63.1 51.72c0 3.87 3.06 7 6.83 7v-4.67a2.3 2.3 0 0 1-2.27-2.33V31H63.1v20.72Zm-6.85-11.73h2.29v4.66h-2.29v14.07H51.7V44.65h-2.28V40h2.28v-2a6.91 6.91 0 0 1 6.84-6.99v4.66A2.3 2.3 0 0 0 56.26 38v1.99ZM30.41 56.77v8.16h-4.56V36.96h4.56v1.94a10.41 10.41 0 0 1 6.07-1.94h.02c5.87 0 10.63 4.87 10.63 10.88 0 6-4.76 10.88-10.63 10.88h-.02c-2.26 0-4.35-.72-6.07-1.95Zm6.07-15.15a6.15 6.15 0 0 0-6.07 6.22 6.15 6.15 0 0 0 6.07 6.21h.02a6.15 6.15 0 0 0 6.07-6.21 6.15 6.15 0 0 0-6.07-6.22h-.02ZM0 47.84V36.96h4.56v10.88a6.15 6.15 0 0 0 6.08 6.21h.01a6.15 6.15 0 0 0 6.07-6.21V36.96h4.57v21.76h-4.57v-1.95a10.42 10.42 0 0 1-6.06 1.95h-.03A10.76 10.76 0 0 1 0 47.84Z"/></g></g><defs><clipPath id="a"><path fill="#fff" d="M0 0h130v90H0z"/></clipPath><clipPath id="b"><path fill="#fff" d="M0 0h130.33v34H0z" transform="translate(0 31)"/></clipPath></defs></svg>