<svg xmlns:xlink="http://www.w3.org/1999/xlink" xmlns="http://www.w3.org/2000/svg" width="56" height="90" fill="none"><path fill="#000" fill-rule="evenodd" d="m16.76 37.65-5.17 13.5a.34.34 0 0 1-.52.16.36.36 0 0 1-.13-.16L5.78 37.87a.37.37 0 0 0-.34-.22l-5.13.11a.28.28 0 0 0-.24.13.27.27 0 0 0-.04.27l8.3 21.65a.32.32 0 0 0 .35.27h5.27a.37.37 0 0 0 .33-.22l8.47-22.05a.34.34 0 0 0 0-.31.36.36 0 0 0-.28-.15l-5.4.07a.35.35 0 0 0-.3.23" clip-rule="evenodd"/><path fill="#000" d="M36.4 48.36h-6.18a.4.4 0 0 1-.33-.18.4.4 0 0 1-.05-.38l3.06-9.15a.41.41 0 0 1 .39-.28.4.4 0 0 1 .38.28l3.1 9.15a.4.4 0 0 1-.03.38.41.41 0 0 1-.34.18Zm-7.3-15.43-9.6 26.59a.43.43 0 0 0 .06.38.42.42 0 0 0 .34.18h5.12a.39.39 0 0 0 .37-.27l2.06-5.58a.43.43 0 0 1 .4-.26h10.93a.4.4 0 0 1 .39.26l2.06 5.58a.4.4 0 0 0 .35.27h5.11a.42.42 0 0 0 .34-.18.43.43 0 0 0 .05-.38L37.5 32.73a.44.44 0 0 0-.34-.27l-7.72.1a.4.4 0 0 0-.37.27"/><path fill="url(#a)" fill-rule="evenodd" d="M54 13c-.73.02-1.47.1-2.2.2L27 16.55c-.13.01-.27.05-.4.1a3.77 3.77 0 0 0-3.18 4.2L3.46 27c-2.2.6-3.68 1.11-3.43 2.53.24 1.42 1.96 1.4 4.17 1.11L29 27.31c.13-.01.27-.05.4-.1a3.77 3.77 0 0 0 3.2-4.16l19.97-6.15c2.19-.6 3.67-1.1 3.4-2.53C55.8 13.3 55.07 13 54 13Z" clip-rule="evenodd"/><path fill="#000" fill-rule="evenodd" d="M49.54 32.97v26.69a.41.41 0 0 0 .4.42h4.87a.41.41 0 0 0 .4-.42V32.87a.43.43 0 0 0-.41-.42l-4.87.06a.46.46 0 0 0-.3.13.42.42 0 0 0-.1.3v.03Z" clip-rule="evenodd"/><defs><linearGradient id="a" x1=".03" x2="56.03" y1="13" y2="13" gradientUnits="userSpaceOnUse"><stop stop-color="#00FFA0"/><stop offset="1" stop-color="#4DD3FA"/></linearGradient></defs></svg>