<svg xmlns:xlink="http://www.w3.org/1999/xlink" xmlns="http://www.w3.org/2000/svg" width="175" height="90" fill="none"><g fill="#000" clip-path="url(#a)"><path d="M168.02 40.47h2.62v.25h-1.18v2.96h-.27v-2.96h-1.17v-.25Zm4.61 3.22L171.47 41v2.69h-.26v-3.22h.3l1.2 2.83 1.21-2.83h.29v3.22h-.26V41l-1.15 2.69h-.17Zm-8.19-9.19v5.85h-5.08v7.9c0 .98-.43 1.83-1.66 1.83-1.24 0-1.66-.85-1.66-1.83v-7.9h-5.2v7.9c0 .98-.43 1.83-1.66 1.83s-1.66-.85-1.66-1.83v-7.9h-5.3c0-6.1.03-4.2.03-5.86 0-6.4 5.63-9.49 11.08-9.49 5.44 0 11.1 3.05 11.1 9.5Zm-6.59 21.59a6.2 6.2 0 0 1-4.47-2.2h-.03a6.23 6.23 0 0 1-4.47 2.2 7 7 0 0 1-5.22-2.2h-1.44a11.11 11.11 0 0 0 22.22 0h-1.37a7 7 0 0 1-5.22 2.2ZM0 39.97h5.37v9.66c0 1 .43 1.88 1.7 1.88 1.28 0 1.72-.88 1.72-1.88v-9.66h5.37v9.66c0 1 .43 1.88 1.7 1.88 1.28 0 1.72-.88 1.72-1.88v-9.66h5.37V50.5c0 3.79-3.25 6.17-6.85 6.17a6.43 6.43 0 0 1-4.63-2.28 6.42 6.42 0 0 1-4.63 2.28C3.25 56.67 0 54.29 0 50.5V39.97Zm43.88 16.31H38.2V54.5h-.06c-1 1.59-2.96 2.3-4.83 2.3-4.74 0-8.07-3.95-8.07-8.53 0-4.59 3.26-8.51 8-8.51 1.85 0 3.78.69 4.96 2.09v-1.56h5.68v15.99ZM31.1 48.3c0 2.02 1.34 3.58 3.64 3.58 2.31 0 3.65-1.56 3.65-3.58a3.47 3.47 0 0 0-3.65-3.62 3.47 3.47 0 0 0-3.64 3.62Zm21.6-17.9h-5.68v25.87h5.68V30.4Zm9.42 0h-5.67v25.87h5.67V30.4Zm3.55 0h5.67v11.44a6.56 6.56 0 0 1 4.96-2.1c4.74 0 8.01 3.93 8.01 8.51 0 4.62-3.3 8.54-8.07 8.54-1.87 0-3.8-.71-4.83-2.3h-.07v1.78h-5.67V30.4Zm5.48 17.9c0 2.02 1.34 3.58 3.65 3.58 2.3 0 3.64-1.56 3.64-3.58a3.47 3.47 0 0 0-3.64-3.62 3.47 3.47 0 0 0-3.65 3.62Zm34.05 0c0 5.42-4.5 8.5-9.64 8.5-5.1 0-9.63-3.05-9.63-8.5 0-5.46 4.5-8.54 9.63-8.54 5.14 0 9.63 3.08 9.63 8.54Zm-13.28 0c0 2.02 1.34 3.58 3.64 3.58s3.65-1.56 3.65-3.58a3.47 3.47 0 0 0-3.65-3.62 3.47 3.47 0 0 0-3.64 3.62Z"/><path d="M105.04 40.29h7.2l2.87 3.3 2.87-3.3h7.32l-6.61 7.32 7.98 8.67h-7.45l-4.11-4.74-4.12 4.74h-7.45l7.98-8.67-6.48-7.32Z"/></g><defs><clipPath id="a"><path fill="#fff" d="M0 0h174.21v90H0z"/></clipPath></defs></svg>